<?xml version="1.0" encoding="UTF-8"?>
<svg width="369.533824px" height="380.069589px" viewBox="0 0 369.533824 380.069589" version="1.1" xmlns="http://www.w3.org/2000/svg" xmlns:xlink="http://www.w3.org/1999/xlink">
    <title>Group</title>
    <g id="Page-1" stroke="none" stroke-width="1" fill="none" fill-rule="evenodd">
        <g id="Artboard" transform="translate(-199.001, -193.9652)" fill="#736E6E">
            <g id="Group" transform="translate(383.7674, 384) scale(-1, 1) translate(-383.7674, -384)translate(199, 193.9652)">
                <path d="M14,176.034794 L343,176.034794 C350.731986,176.034794 357,182.302808 357,190.034794 C357,197.766781 350.731986,204.034794 343,204.034794 L14,204.034794 C6.2680135,204.034794 -1.14876026e-14,197.766781 0,190.034794 C-9.46895252e-16,182.302808 6.2680135,176.034794 14,176.034794 Z" id="Rectangle"></path>
                <path d="M365.434289,199.969083 C365.155059,200.248313 364.866969,200.513282 364.570923,200.76399 L189.364701,375.969083 C183.897361,381.436424 175.033051,381.436424 169.565711,375.969083 C164.098371,370.501743 164.098371,361.637434 169.565711,356.170094 L335.701206,190.035 L169.565711,23.8994949 C164.098371,18.4321549 164.098371,9.56784515 169.565711,4.10050506 C175.033051,-1.36683502 183.897361,-1.36683502 189.364701,4.10050506 L364.570923,179.305598 C364.866969,179.556306 365.155059,179.821275 365.434289,180.100505 C368.125903,182.792119 369.492414,186.307045 369.533824,189.834638 L369.533824,190.234951 C369.492414,193.762543 368.125903,197.27747 365.434289,199.969083 Z" id="Combined-Shape"></path>
            </g>
        </g>
    </g>
</svg>