<?xml version="1.0" encoding="UTF-8"?>
<svg width="386px" height="419px" viewBox="0 0 386 419" version="1.1" xmlns="http://www.w3.org/2000/svg" xmlns:xlink="http://www.w3.org/1999/xlink">
    <title>Group 3</title>
    <g id="Page-1" stroke="none" stroke-width="1" fill="none" fill-rule="evenodd">
        <g id="Share-Icon" transform="translate(-191, -158)">
            <g id="Group-3" transform="translate(191, 158)">
                <g id="Group" transform="translate(0, 33)">
                    <path d="M258.902485,27.500859 C294.86827,27.5576061 308.456002,30.4308397 321.873317,37.6064981 C333.306344,43.7209484 342.279052,52.6936556 348.393502,64.1266834 C355.641642,77.6795266 358.5,91.4062466 358.5,128.19426 L358.5,257.80574 C358.5,294.593753 355.641642,308.320473 348.393502,321.873317 C342.279052,333.306344 333.306344,342.279052 321.873317,348.393502 C308.320473,355.641642 294.593753,358.5 257.80574,358.5 L128.19426,358.5 C91.4062466,358.5 77.6795266,355.641642 64.1266834,348.393502 C52.6936556,342.279052 43.7209484,333.306344 37.6064981,321.873317 C30.3583583,308.320473 27.5,294.593753 27.5,257.80574 L27.500859,127.097515 C27.5576061,91.1317296 30.4308397,77.5439981 37.6064981,64.1266834 C43.7209484,52.6936556 52.6936556,43.7209484 64.1266834,37.6064981 C77.6795266,30.3583583 91.4062466,27.5 128.19426,27.5 Z" id="Rectangle" stroke="#979797" stroke-width="55"></path>
                    <path d="M50.2555408,29 L336.744459,29 C340.310534,29 341.603679,29.3713024 342.907383,30.0685308 C344.211087,30.7657592 345.234241,31.7889135 345.931469,33.0926172 C346.628698,34.3963209 347,35.6894658 347,39.2555408 L347,89.7444592 C347,93.3105342 346.628698,94.6036791 345.931469,95.9073828 C345.234241,97.2110865 344.211087,98.2342408 342.907383,98.9314692 C341.603679,99.6286976 340.310534,100 336.744459,100 L50.2555408,100 C46.6894658,100 45.3963209,99.6286976 44.0926172,98.9314692 C42.7889135,98.2342408 41.7657592,97.2110865 41.0685308,95.9073828 C40.3713024,94.6036791 40,93.3105342 40,89.7444592 L40,39.2555408 C40,35.6894658 40.3713024,34.3963209 41.0685308,33.0926172 C41.7657592,31.7889135 42.7889135,30.7657592 44.0926172,30.0685308 C45.3963209,29.3713024 46.6894658,29 50.2555408,29 Z" id="Rectangle" fill="#979797"></path>
                </g>
                <g id="Group-2" transform="translate(103, 0)" fill="#979797">
                    <path d="M30.5,0 C47.3446849,-3.09431841e-15 61,13.6553151 61,30.5 L61,67 L61,67 L0,67 L0,30.5 C-2.06287894e-15,13.6553151 13.6553151,3.09431841e-15 30.5,0 Z" id="Rectangle"></path>
                    <path d="M150.5,0 C167.344685,-3.09431841e-15 181,13.6553151 181,30.5 L181,67 L181,67 L120,67 L120,30.5 C120,13.6553151 133.655315,3.09431841e-15 150.5,0 Z" id="Rectangle"></path>
                </g>
            </g>
        </g>
    </g>
</svg>