<?xml version="1.0" encoding="UTF-8"?>
<svg width="393.759451px" height="356.879726px" viewBox="0 0 393.759451 356.879726" version="1.1" xmlns="http://www.w3.org/2000/svg" xmlns:xlink="http://www.w3.org/1999/xlink">
    <title>Group 3</title>
    <g id="Page-1" stroke="none" stroke-width="1" fill="none" fill-rule="evenodd">
        <g id="Share-Icon" transform="translate(-187.3877, -205.3877)" fill="#979797">
            <g id="Group-3" transform="translate(187.3877, 205.3877)">
                <g id="Group-2" transform="translate(0, 0)">
                    <path d="M68.8797257,173.379726 L325.879726,173.379726 C341.067556,173.379726 353.379726,185.691895 353.379726,200.879726 C353.379726,216.067556 341.067556,228.379726 325.879726,228.379726 L68.8797257,228.379726 C53.6918951,228.379726 41.3797257,216.067556 41.3797257,200.879726 C41.3797257,185.691895 53.6918951,173.379726 68.8797257,173.379726 Z" id="Rectangle" transform="translate(197.3797, 200.8797) scale(1, -1) rotate(90) translate(-197.3797, -200.8797)"></path>
                    <g id="Group">
                        <path d="M6.37972568,91.8797257 L228.379726,91.8797257 C243.567556,91.8797257 255.879726,104.191895 255.879726,119.379726 C255.879726,134.567556 243.567556,146.879726 228.379726,146.879726 L6.37972568,146.879726 C-8.80810494,146.879726 -21.1202743,134.567556 -21.1202743,119.379726 C-21.1202743,104.191895 -8.80810494,91.8797257 6.37972568,91.8797257 Z" id="Rectangle" transform="translate(117.3797, 119.3797) rotate(-45) translate(-117.3797, -119.3797)"></path>
                        <path d="M165.379726,89.8797257 L387.379726,89.8797257 C402.567556,89.8797257 414.879726,102.191895 414.879726,117.379726 C414.879726,132.567556 402.567556,144.879726 387.379726,144.879726 L165.379726,144.879726 C150.191895,144.879726 137.879726,132.567556 137.879726,117.379726 C137.879726,102.191895 150.191895,89.8797257 165.379726,89.8797257 Z" id="Rectangle" transform="translate(276.3797, 117.3797) scale(1, -1) rotate(135) translate(-276.3797, -117.3797)"></path>
                    </g>
                </g>
            </g>
        </g>
    </g>
</svg>