<?xml version="1.0" encoding="UTF-8"?>
<svg width="2064px" height="355px" viewBox="0 0 2064 355" version="1.1" xmlns="http://www.w3.org/2000/svg" xmlns:xlink="http://www.w3.org/1999/xlink">
    <title>@shotastage</title>
    <g id="Page-1" stroke="none" stroke-width="1" fill="none" fill-rule="evenodd">
        <g id="@shotastage" transform="translate(0.332812, 0.687500)" fill="#000000" fill-rule="nonzero">
            <path d="M234.4,141.1125 C234.4,132.3125 233.066667,123.9125 230.4,115.9125 C227.733333,107.9125 224.133333,100.579167 219.6,93.9125 L189.2,199.5125 C188.933333,201.1125 188.666667,202.7125 188.4,204.3125 C188.133333,205.9125 188,207.379167 188,208.7125 L188,212.7125 C190.4,212.7125 194.2,211.779167 199.4,209.9125 C204.6,208.045833 209.8,204.5125 215,199.3125 C220.2,194.1125 224.733333,186.845833 228.6,177.5125 C232.466667,168.179167 234.4,156.045833 234.4,141.1125 Z M182.8,89.9125 L216.4,89.9125 C208.133333,79.5125 197.8,71.3791667 185.4,65.5125 C173,59.6458333 159.866667,56.7125 146,56.7125 C130.8,56.7125 116.6,59.5791667 103.4,65.3125 C90.2,71.0458333 78.8,78.9125 69.2,88.9125 C59.6,98.9125 52,110.779167 46.4,124.5125 C40.8,138.245833 38,153.1125 38,169.1125 C38,184.3125 40.8666667,198.179167 46.6,210.7125 C52.3333333,223.245833 59.9333333,233.9125 69.4,242.7125 C78.8666667,251.5125 89.8,258.3125 102.2,263.1125 C114.6,267.9125 127.466667,270.3125 140.8,270.3125 C156,270.3125 169.8,267.445833 182.2,261.7125 C194.6,255.979167 205.333333,248.045833 214.4,237.9125 C202.133333,243.245833 189.6,245.9125 176.8,245.9125 C170.666667,245.9125 165.533333,244.7125 161.4,242.3125 C157.266667,239.9125 154,236.845833 151.6,233.1125 C142,241.645833 129.466667,245.9125 114,245.9125 C104.666667,245.9125 96.4,244.179167 89.2,240.7125 C82,237.245833 75.8,232.645833 70.6,226.9125 C65.4,221.179167 61.4666667,214.7125 58.8,207.5125 C56.1333333,200.3125 54.8,192.979167 54.8,185.5125 C54.8,173.779167 56.9333333,161.9125 61.2,149.9125 C65.4666667,137.9125 71.4,127.045833 79,117.3125 C86.6,107.579167 95.7333333,99.6458333 106.4,93.5125 C117.066667,87.3791667 128.933333,84.3125 142,84.3125 C150.266667,84.3125 157.533333,86.0458333 163.8,89.5125 C170.066667,92.9791667 175.2,96.7125 179.2,100.7125 L182.8,89.9125 Z M271.6,139.5125 C271.6,160.045833 268,177.645833 260.8,192.3125 C253.6,206.979167 244.133333,218.579167 232.4,227.1125 L260.4,227.1125 C255.333333,239.9125 248.466667,251.1125 239.8,260.7125 C231.133333,270.3125 221.266667,278.3125 210.2,284.7125 C199.133333,291.1125 187.133333,295.845833 174.2,298.9125 C161.266667,301.979167 148.266667,303.5125 135.2,303.5125 C117.866667,303.5125 101.066667,300.245833 84.8,293.7125 C68.5333333,287.179167 54.1333333,277.979167 41.6,266.1125 C29.0666667,254.245833 19,240.179167 11.4,223.9125 C3.8,207.645833 0,189.779167 0,170.3125 C0,147.9125 3.93333333,127.645833 11.8,109.5125 C19.6666667,91.3791667 30.3333333,75.9791667 43.8,63.3125 C57.2666667,50.6458333 72.8,40.9125 90.4,34.1125 C108,27.3125 126.666667,23.9125 146.4,23.9125 C162.4,23.9125 177.933333,26.7791667 193,32.5125 C208.066667,38.2458333 221.4,46.1791667 233,56.3125 C244.6,66.4458333 253.933333,78.5791667 261,92.7125 C268.066667,106.845833 271.6,122.445833 271.6,139.5125 Z M156,179.1125 C157.866667,172.7125 159.4,167.5125 160.6,163.5125 C161.8,159.5125 162.666667,156.245833 163.2,153.7125 C163.733333,151.179167 164.066667,149.245833 164.2,147.9125 C164.333333,146.579167 164.4,145.379167 164.4,144.3125 C164.4,136.579167 162.266667,130.245833 158,125.3125 C153.733333,120.379167 148.533333,117.9125 142.4,117.9125 C136.266667,117.9125 130.333333,119.979167 124.6,124.1125 C118.866667,128.245833 113.8,133.5125 109.4,139.9125 C105,146.3125 101.4,153.245833 98.6,160.7125 C95.8,168.179167 94.4,175.245833 94.4,181.9125 C94.4,185.645833 94.8,189.445833 95.6,193.3125 C96.4,197.179167 97.6666667,200.579167 99.4,203.5125 C101.133333,206.445833 103.4,208.845833 106.2,210.7125 C109,212.579167 112.4,213.5125 116.4,213.5125 C124.4,213.5125 132.133333,210.5125 139.6,204.5125 C147.066667,198.5125 152.533333,190.045833 156,179.1125 Z" id="@"></path>
            <path d="M303.35625,209.765625 L314.489062,209.765625 C318.395312,228.90625 325.686979,242.415365 336.364062,250.292969 C347.041146,258.170573 357.978646,262.109375 369.176562,262.109375 C379.463021,262.109375 387.015104,259.798177 391.832812,255.175781 C396.650521,250.553385 399.059375,244.466146 399.059375,236.914062 C399.059375,229.752604 396.455208,223.632812 391.246875,218.554688 C388.382292,215.820312 383.759896,212.890625 377.379687,209.765625 L347.692187,195.3125 C332.067187,187.630208 320.869271,179.296875 314.098437,170.3125 C307.197396,161.328125 303.746875,150.716146 303.746875,138.476562 C303.746875,122.981771 309.150521,109.602865 319.957812,98.3398438 C330.765104,87.0768229 345.869271,81.4453125 365.270312,81.4453125 C373.733854,81.4453125 382.718229,82.8450521 392.223437,85.6445312 C401.728646,88.4440104 407.653125,89.84375 409.996875,89.84375 C413.252083,89.84375 415.563281,89.1601562 416.930469,87.7929688 C418.297656,86.4257812 419.436979,84.5052083 420.348437,82.03125 L429.1375,82.03125 L429.1375,139.84375 L418.98125,139.84375 C415.205208,126.302083 409.020312,115.429688 400.426562,107.226562 C391.832812,99.0234375 381.806771,94.921875 370.348437,94.921875 C361.494271,94.921875 354.886198,97.3958333 350.524219,102.34375 C346.16224,107.291667 343.98125,112.630208 343.98125,118.359375 C343.98125,123.046875 345.934375,127.734375 349.840625,132.421875 C353.616667,137.239583 360.778125,142.1875 371.325,147.265625 L393.2,157.8125 C406.741667,164.322917 416.6375,170.638021 422.8875,176.757812 C433.304167,187.174479 438.5125,200 438.5125,215.234375 C438.5125,230.078125 433.141406,243.91276 422.399219,256.738281 C411.657031,269.563802 395.54375,275.976562 374.059375,275.976562 C368.720833,275.976562 363.34974,275.423177 357.946094,274.316406 C352.542448,273.209635 345.869271,271.289062 337.926562,268.554688 L331.090625,266.210938 C328.616667,265.299479 327.086719,264.778646 326.500781,264.648438 C325.914844,264.518229 325.166146,264.453125 324.254687,264.453125 C322.041146,264.453125 320.120573,265.332031 318.492969,267.089844 C316.865365,268.847656 315.009896,271.809896 312.926562,275.976562 L303.35625,275.976562 L303.35625,209.765625 Z" id="s"></path>
            <path d="M455.309375,260.742188 C462.601042,259.830729 467.972135,257.845052 471.422656,254.785156 C474.873177,251.72526 476.598437,245.638021 476.598437,236.523438 L476.598437,32.8125 C476.598437,24.8697917 475.166146,19.3033854 472.301562,16.1132812 C469.436979,12.9231771 463.772917,10.8072917 455.309375,9.765625 L455.309375,0 L532.653125,0 L532.653125,112.5 C540.85625,102.604167 549.482552,94.9544271 558.532031,89.5507812 C567.58151,84.1471354 577.770312,81.4453125 589.098437,81.4453125 C604.463021,81.4453125 617.158333,85.9049479 627.184375,94.8242188 C637.210417,103.74349 642.223437,118.945312 642.223437,140.429688 L642.223437,236.523438 C642.223437,245.507812 643.753385,251.39974 646.813281,254.199219 C649.873177,256.998698 654.983854,259.179688 662.145312,260.742188 L662.145312,270.3125 L568.2,270.3125 L568.2,260.742188 C575.361458,259.309896 580.244271,257.356771 582.848437,254.882812 C585.452604,252.408854 586.754687,246.809896 586.754687,238.085938 L586.754687,141.210938 C586.754687,132.096354 585.843229,125.260417 584.020312,120.703125 C580.895312,112.5 574.710417,108.398438 565.465625,108.398438 C558.564583,108.398438 551.435677,111.588542 544.078906,117.96875 C536.722135,124.348958 533.04375,128.710938 533.04375,131.054688 L533.04375,238.085938 C533.04375,246.809896 534.345833,252.408854 536.95,254.882812 C539.554167,257.356771 544.436979,259.309896 551.598437,260.742188 L551.598437,270.3125 L455.309375,270.3125 L455.309375,260.742188 Z" id="h"></path>
            <path d="M680.114062,178.710938 C680.114062,150.846354 688.67526,127.604167 705.797656,108.984375 C722.920052,90.3645833 744.436979,81.0546875 770.348437,81.0546875 C796.780729,81.0546875 818.427865,90.5598958 835.289844,109.570312 C852.151823,128.580729 860.582812,151.627604 860.582812,178.710938 C860.582812,205.403646 852.249479,228.352865 835.582812,247.558594 C818.916146,266.764323 797.171354,276.367188 770.348437,276.367188 C744.306771,276.367188 722.757292,267.02474 705.7,248.339844 C688.642708,229.654948 680.114062,206.445312 680.114062,178.710938 Z M738.903125,178.710938 C738.903125,206.705729 740.335417,226.302083 743.2,237.5 C747.757292,254.817708 756.806771,263.476562 770.348437,263.476562 C783.239062,263.476562 791.702604,256.835938 795.739062,243.554688 C799.775521,230.273438 801.79375,208.658854 801.79375,178.710938 C801.79375,148.893229 799.677865,127.311198 795.446094,113.964844 C791.214323,100.61849 782.913542,93.9453125 770.54375,93.9453125 C757.002083,93.9453125 747.952604,102.604167 743.395312,119.921875 C740.400521,131.510417 738.903125,151.106771 738.903125,178.710938 Z" id="o"></path>
            <path d="M877.770312,103.710938 L877.770312,92.578125 C881.285937,89.3229167 885.647917,85.4817708 890.85625,81.0546875 C897.757292,74.6744792 904.267708,68.0989583 910.3875,61.328125 C922.496875,48.046875 933.499479,33.7890625 943.395312,18.5546875 L953.551562,18.5546875 L953.551562,86.1328125 L991.6375,86.1328125 L991.6375,103.710938 L953.551562,103.710938 L953.551562,224.023438 C953.551562,229.622396 954.397917,234.309896 956.090625,238.085938 C958.694792,243.945312 962.991667,246.875 968.98125,246.875 C974.189583,246.875 978.551562,245.019531 982.067187,241.308594 C985.582812,237.597656 989.098437,232.486979 992.614062,225.976562 L1002.18437,230.664062 C997.496875,241.601562 991.897917,250.520833 985.3875,257.421875 C973.929167,269.53125 959.931771,275.585938 943.395312,275.585938 C934.020312,275.585938 925.817187,273.828125 918.785937,270.3125 C905.244271,263.541667 898.473437,251.236979 898.473437,233.398438 L898.473437,103.710938 L877.770312,103.710938 Z" id="t"></path>
            <path d="M1092.22344,247.460938 C1098.73385,247.460938 1104.78854,245.507812 1110.3875,241.601562 C1113.5125,239.257812 1117.22344,235.611979 1121.52031,230.664062 L1121.52031,172.265625 C1110.84323,174.869792 1101.46823,178.971354 1093.39531,184.570312 C1079.72344,194.075521 1072.8875,206.184896 1072.8875,220.898438 C1072.8875,229.622396 1074.87318,236.230469 1078.84453,240.722656 C1082.81589,245.214844 1087.27552,247.460938 1092.22344,247.460938 Z M1014.68437,233.007812 C1014.68437,215.039062 1023.34323,200.78125 1040.66094,190.234375 C1057.97865,179.6875 1085.12708,169.075521 1122.10625,158.398438 L1122.10625,129.296875 C1122.10625,117.447917 1119.59974,108.691406 1114.58672,103.027344 C1109.5737,97.3632812 1100.68698,94.53125 1087.92656,94.53125 C1080.7651,94.53125 1074.87318,95.8658854 1070.25078,98.5351562 C1065.62839,101.204427 1063.31719,104.557292 1063.31719,108.59375 C1063.31719,110.15625 1063.5776,111.458333 1064.09844,112.5 C1064.61927,113.541667 1065.40052,114.648438 1066.44219,115.820312 L1068.78594,118.554688 C1070.60885,120.768229 1072.0737,123.209635 1073.18047,125.878906 C1074.28724,128.548177 1074.84062,131.380208 1074.84062,134.375 C1074.84062,141.927083 1072.33411,147.753906 1067.32109,151.855469 C1062.30807,155.957031 1056.48125,158.007812 1049.84062,158.007812 C1042.15833,158.007812 1035.61536,155.729167 1030.21172,151.171875 C1024.80807,146.614583 1022.10625,140.039062 1022.10625,131.445312 C1022.10625,116.080729 1029.33281,103.90625 1043.78594,94.921875 C1058.23906,85.9375 1076.0125,81.4453125 1097.10625,81.4453125 C1119.7625,81.4453125 1138.70781,85.8072917 1153.94219,94.53125 C1169.04635,103.385417 1176.59844,119.661458 1176.59844,143.359375 L1176.59844,240.234375 C1176.59844,243.098958 1177.34714,245.540365 1178.84453,247.558594 C1180.34193,249.576823 1182.00208,250.585938 1183.825,250.585938 C1185.3875,250.585938 1186.78724,250.292969 1188.02422,249.707031 C1189.2612,249.121094 1191.18177,247.526042 1193.78594,244.921875 L1199.84062,253.320312 C1192.02812,262.434896 1183.36927,268.815104 1173.86406,272.460938 C1167.87448,274.804688 1161.55937,275.976562 1154.91875,275.976562 C1143.06979,275.976562 1134.41094,272.526042 1128.94219,265.625 C1125.81719,261.71875 1123.53854,255.924479 1122.10625,248.242188 C1111.03854,259.309896 1098.53854,267.122396 1084.60625,271.679688 C1076.14271,274.544271 1067.80937,275.976562 1059.60625,275.976562 C1048.66875,275.976562 1038.4474,272.49349 1028.94219,265.527344 C1019.43698,258.561198 1014.68437,247.721354 1014.68437,233.007812 Z" id="a"></path>
            <path d="M1214.68437,209.765625 L1225.81719,209.765625 C1229.72344,228.90625 1237.0151,242.415365 1247.69219,250.292969 C1258.36927,258.170573 1269.30677,262.109375 1280.50469,262.109375 C1290.79115,262.109375 1298.34323,259.798177 1303.16094,255.175781 C1307.97865,250.553385 1310.3875,244.466146 1310.3875,236.914062 C1310.3875,229.752604 1307.78333,223.632812 1302.575,218.554688 C1299.71042,215.820312 1295.08802,212.890625 1288.70781,209.765625 L1259.02031,195.3125 C1243.39531,187.630208 1232.1974,179.296875 1225.42656,170.3125 C1218.52552,161.328125 1215.075,150.716146 1215.075,138.476562 C1215.075,122.981771 1220.47865,109.602865 1231.28594,98.3398438 C1242.09323,87.0768229 1257.1974,81.4453125 1276.59844,81.4453125 C1285.06198,81.4453125 1294.04635,82.8450521 1303.55156,85.6445312 C1313.05677,88.4440104 1318.98125,89.84375 1321.325,89.84375 C1324.58021,89.84375 1326.89141,89.1601562 1328.25859,87.7929688 C1329.62578,86.4257812 1330.7651,84.5052083 1331.67656,82.03125 L1340.46562,82.03125 L1340.46562,139.84375 L1330.30937,139.84375 C1326.53333,126.302083 1320.34844,115.429688 1311.75469,107.226562 C1303.16094,99.0234375 1293.1349,94.921875 1281.67656,94.921875 C1272.8224,94.921875 1266.21432,97.3958333 1261.85234,102.34375 C1257.49036,107.291667 1255.30937,112.630208 1255.30937,118.359375 C1255.30937,123.046875 1257.2625,127.734375 1261.16875,132.421875 C1264.94479,137.239583 1272.10625,142.1875 1282.65312,147.265625 L1304.52812,157.8125 C1318.06979,164.322917 1327.96562,170.638021 1334.21562,176.757812 C1344.63229,187.174479 1349.84062,200 1349.84062,215.234375 C1349.84062,230.078125 1344.46953,243.91276 1333.72734,256.738281 C1322.98516,269.563802 1306.87187,275.976562 1285.3875,275.976562 C1280.04896,275.976562 1274.67786,275.423177 1269.27422,274.316406 C1263.87057,273.209635 1257.1974,271.289062 1249.25469,268.554688 L1242.41875,266.210938 C1239.94479,265.299479 1238.41484,264.778646 1237.82891,264.648438 C1237.24297,264.518229 1236.49427,264.453125 1235.58281,264.453125 C1233.36927,264.453125 1231.4487,265.332031 1229.82109,267.089844 C1228.19349,268.847656 1226.33802,271.809896 1224.25469,275.976562 L1214.68437,275.976562 L1214.68437,209.765625 Z" id="s"></path>
            <path d="M1366.6375,103.710938 L1366.6375,92.578125 C1370.15312,89.3229167 1374.5151,85.4817708 1379.72344,81.0546875 C1386.62448,74.6744792 1393.1349,68.0989583 1399.25469,61.328125 C1411.36406,48.046875 1422.36667,33.7890625 1432.2625,18.5546875 L1442.41875,18.5546875 L1442.41875,86.1328125 L1480.50469,86.1328125 L1480.50469,103.710938 L1442.41875,103.710938 L1442.41875,224.023438 C1442.41875,229.622396 1443.2651,234.309896 1444.95781,238.085938 C1447.56198,243.945312 1451.85885,246.875 1457.84844,246.875 C1463.05677,246.875 1467.41875,245.019531 1470.93437,241.308594 C1474.45,237.597656 1477.96562,232.486979 1481.48125,225.976562 L1491.05156,230.664062 C1486.36406,241.601562 1480.7651,250.520833 1474.25469,257.421875 C1462.79635,269.53125 1448.79896,275.585938 1432.2625,275.585938 C1422.8875,275.585938 1414.68437,273.828125 1407.65312,270.3125 C1394.11146,263.541667 1387.34062,251.236979 1387.34062,233.398438 L1387.34062,103.710938 L1366.6375,103.710938 Z" id="t"></path>
            <path d="M1581.09062,247.460938 C1587.60104,247.460938 1593.65573,245.507812 1599.25469,241.601562 C1602.37969,239.257812 1606.09062,235.611979 1610.3875,230.664062 L1610.3875,172.265625 C1599.71042,174.869792 1590.33542,178.971354 1582.2625,184.570312 C1568.59062,194.075521 1561.75469,206.184896 1561.75469,220.898438 C1561.75469,229.622396 1563.74036,236.230469 1567.71172,240.722656 C1571.68307,245.214844 1576.14271,247.460938 1581.09062,247.460938 Z M1503.55156,233.007812 C1503.55156,215.039062 1512.21042,200.78125 1529.52812,190.234375 C1546.84583,179.6875 1573.99427,169.075521 1610.97344,158.398438 L1610.97344,129.296875 C1610.97344,117.447917 1608.46693,108.691406 1603.45391,103.027344 C1598.44089,97.3632812 1589.55417,94.53125 1576.79375,94.53125 C1569.63229,94.53125 1563.74036,95.8658854 1559.11797,98.5351562 C1554.49557,101.204427 1552.18437,104.557292 1552.18437,108.59375 C1552.18437,110.15625 1552.44479,111.458333 1552.96562,112.5 C1553.48646,113.541667 1554.26771,114.648438 1555.30937,115.820312 L1557.65312,118.554688 C1559.47604,120.768229 1560.94089,123.209635 1562.04766,125.878906 C1563.15443,128.548177 1563.70781,131.380208 1563.70781,134.375 C1563.70781,141.927083 1561.2013,147.753906 1556.18828,151.855469 C1551.17526,155.957031 1545.34844,158.007812 1538.70781,158.007812 C1531.02552,158.007812 1524.48255,155.729167 1519.07891,151.171875 C1513.67526,146.614583 1510.97344,140.039062 1510.97344,131.445312 C1510.97344,116.080729 1518.2,103.90625 1532.65312,94.921875 C1547.10625,85.9375 1564.87969,81.4453125 1585.97344,81.4453125 C1608.62969,81.4453125 1627.575,85.8072917 1642.80937,94.53125 C1657.91354,103.385417 1665.46562,119.661458 1665.46562,143.359375 L1665.46562,240.234375 C1665.46562,243.098958 1666.21432,245.540365 1667.71172,247.558594 C1669.20911,249.576823 1670.86927,250.585938 1672.69219,250.585938 C1674.25469,250.585938 1675.65443,250.292969 1676.89141,249.707031 C1678.12839,249.121094 1680.04896,247.526042 1682.65312,244.921875 L1688.70781,253.320312 C1680.89531,262.434896 1672.23646,268.815104 1662.73125,272.460938 C1656.74167,274.804688 1650.42656,275.976562 1643.78594,275.976562 C1631.93698,275.976562 1623.27812,272.526042 1617.80937,265.625 C1614.68437,261.71875 1612.40573,255.924479 1610.97344,248.242188 C1599.90573,259.309896 1587.40573,267.122396 1573.47344,271.679688 C1565.0099,274.544271 1556.67656,275.976562 1548.47344,275.976562 C1537.53594,275.976562 1527.31458,272.49349 1517.80937,265.527344 C1508.30417,258.561198 1503.55156,247.721354 1503.55156,233.007812 Z" id="a"></path>
            <path d="M1760.97344,145.898438 C1760.97344,161.263021 1762.27552,172.65625 1764.87969,180.078125 C1768.78594,191.796875 1776.27292,197.65625 1787.34062,197.65625 C1797.36667,197.65625 1804.26771,193.261719 1808.04375,184.472656 C1811.81979,175.683594 1813.70781,162.825521 1813.70781,145.898438 C1813.70781,127.929688 1811.72214,114.84375 1807.75078,106.640625 C1803.77943,98.4375 1796.97604,94.3359375 1787.34062,94.3359375 C1776.79375,94.3359375 1769.7625,98.7304688 1766.24687,107.519531 C1762.73125,116.308594 1760.97344,129.101562 1760.97344,145.898438 Z M1737.73125,313.867188 C1737.73125,322.070312 1742.12578,328.515625 1750.91484,333.203125 C1759.70391,337.890625 1772.43177,340.234375 1789.09844,340.234375 C1803.94219,340.234375 1816.18177,339.0625 1825.81719,336.71875 C1843.91615,332.291667 1852.96562,324.153646 1852.96562,312.304688 C1852.96562,305.403646 1850.39401,300.227865 1845.25078,296.777344 C1840.10755,293.326823 1830.7651,291.601562 1817.22344,291.601562 L1751.59844,291.601562 C1747.43177,294.986979 1744.43698,297.851562 1742.61406,300.195312 C1739.35885,304.492188 1737.73125,309.049479 1737.73125,313.867188 Z M1702.575,316.601562 C1702.575,310.872396 1704.9513,304.980469 1709.70391,298.925781 C1714.45651,292.871094 1722.69219,288.932292 1734.41094,287.109375 L1734.41094,284.375 C1726.59844,281.380208 1720.93437,278.320312 1717.41875,275.195312 C1711.16875,269.596354 1708.04375,262.109375 1708.04375,252.734375 C1708.04375,241.536458 1712.95911,231.966146 1722.78984,224.023438 C1732.62057,216.080729 1742.22344,210.546875 1751.59844,207.421875 L1751.59844,204.6875 C1738.05677,199.21875 1727.11927,191.40625 1718.78594,181.25 C1710.4526,171.09375 1706.28594,158.789062 1706.28594,144.335938 C1706.28594,126.106771 1713.5776,111.067708 1728.16094,99.21875 C1742.74427,87.3697917 1762.47083,81.4453125 1787.34062,81.4453125 C1796.71562,81.4453125 1805.30937,82.3567708 1813.12187,84.1796875 C1820.93437,86.0026042 1826.98906,87.890625 1831.28594,89.84375 L1884.02031,89.84375 L1884.02031,111.132812 L1851.59844,111.132812 C1856.80677,116.210938 1860.81068,122.135417 1863.61016,128.90625 C1866.40964,135.677083 1867.80937,143.033854 1867.80937,150.976562 C1867.80937,175.976562 1855.89531,193.098958 1832.06719,202.34375 C1819.56719,207.291667 1804.00729,209.765625 1785.3875,209.765625 C1781.35104,209.765625 1778.71432,209.700521 1777.47734,209.570312 C1776.24036,209.440104 1774.3849,209.375 1771.91094,209.375 C1768.00469,210.026042 1763.90312,212.109375 1759.60625,215.625 C1755.17917,219.270833 1752.96562,223.632812 1752.96562,228.710938 C1752.96562,232.747396 1754.0724,235.872396 1756.28594,238.085938 C1758.49948,240.299479 1761.55937,241.666667 1765.46562,242.1875 C1767.41875,242.447917 1771.58542,242.675781 1777.96562,242.871094 C1784.34583,243.066406 1789.29375,243.164062 1792.80937,243.164062 L1818.78594,243.554688 C1833.49948,243.815104 1845.86927,245.963542 1855.89531,250 C1875.03594,257.8125 1884.60625,271.809896 1884.60625,291.992188 C1884.60625,318.033854 1870.28333,335.9375 1841.6375,345.703125 C1826.53333,350.78125 1807.52292,353.320312 1784.60625,353.320312 C1765.85625,353.320312 1749.71042,351.497396 1736.16875,347.851562 C1713.77292,341.731771 1702.575,331.315104 1702.575,316.601562 Z" id="g"></path>
            <path d="M1902.37969,178.515625 C1902.37969,147.786458 1910.55026,123.925781 1926.89141,106.933594 C1943.23255,89.9414062 1962.92656,81.4453125 1985.97344,81.4453125 C1999.12448,81.4453125 2011.49427,84.8958333 2023.08281,91.796875 C2034.67135,98.6979167 2043.59062,108.268229 2049.84062,120.507812 C2054.52812,129.752604 2057.78333,141.731771 2059.60625,156.445312 C2060.51771,163.346354 2060.97344,168.619792 2060.97344,172.265625 L1959.02031,172.265625 C1959.93177,188.28125 1962.53594,202.148438 1966.83281,213.867188 C1974.64531,235.872396 1988.38229,246.875 2008.04375,246.875 C2017.41875,246.875 2026.27292,243.945312 2034.60625,238.085938 C2039.68437,234.570312 2045.99948,228.645833 2053.55156,220.3125 L2062.73125,225.976562 C2050.36146,246.289062 2036.03854,260.416667 2019.7625,268.359375 C2009.21562,273.4375 1997.10625,275.976562 1983.43437,275.976562 C1963.77292,275.976562 1945.34844,268.229167 1928.16094,252.734375 C1910.97344,237.239583 1902.37969,212.5 1902.37969,178.515625 Z M2011.75469,157.421875 C2011.49427,133.854167 2009.67135,117.382812 2006.28594,108.007812 C2002.90052,98.6328125 1996.12969,93.9453125 1985.97344,93.9453125 C1975.55677,93.9453125 1968.42786,99.3489583 1964.58672,110.15625 C1960.74557,120.963542 1958.56458,136.71875 1958.04375,157.421875 L2011.75469,157.421875 Z" id="e"></path>
        </g>
    </g>
</svg>