<?xml version="1.0" encoding="UTF-8"?>
<svg width="1226px" height="176px" viewBox="0 0 1226 176" version="1.1" xmlns="http://www.w3.org/2000/svg" xmlns:xlink="http://www.w3.org/1999/xlink">
    <title>TIPSTOCK</title>
    <g id="Page-1" stroke="none" stroke-width="1" fill="none" fill-rule="evenodd">
        <g id="Artboard" transform="translate(-59.000000, -385.000000)" fill="#272727" fill-rule="nonzero">
            <path d="M137.417285,557.8 C138.750618,557.8 139.983951,557.6 141.117285,557.2 C142.250618,556.8 143.083951,556.333333 143.617285,555.8 L143.617285,555.8 L169.617285,534.2 C170.550618,533.4 171.250618,532.4 171.717285,531.2 C172.183951,530 172.417285,528.533333 172.417285,526.8 L172.417285,526.8 L172.417285,452.4 L174.017285,452.4 C175.350618,452.4 176.583951,452.2 177.717285,451.8 C178.850618,451.4 179.683951,450.933333 180.217285,450.4 L180.217285,450.4 L206.217285,428.8 C207.150618,428 207.850618,427 208.317285,425.8 C208.783951,424.6 209.017285,423.133333 209.017285,421.4 L209.017285,421.4 L209.017285,397.2 C209.017285,394 208.283951,391.666667 206.817285,390.2 C205.350618,388.733333 203.017285,388 199.817285,388 L199.817285,388 L94.2172848,388 C92.8839515,388 91.6506181,388.166667 90.5172848,388.5 C89.3839515,388.833333 88.4839515,389.266667 87.8172848,389.8 L87.8172848,389.8 L62.0172848,411.6 C61.0839515,412.4 60.3839515,413.4 59.9172848,414.6 C59.4506181,415.8 59.2172848,417.266667 59.2172848,419 L59.2172848,419 L59.2172848,443.2 C59.2172848,446.4 59.9506181,448.733333 61.4172848,450.2 C62.8839515,451.666667 65.2172848,452.4 68.4172848,452.4 L68.4172848,452.4 L95.8172848,452.4 L95.8172848,548.6 C95.8172848,551.8 96.5506181,554.133333 98.0172848,555.6 C99.4839515,557.066667 101.817285,557.8 105.017285,557.8 L105.017285,557.8 L137.417285,557.8 Z M163.217285,534 L130.817285,534 C128.283951,534 126.450618,533.433333 125.317285,532.3 C124.183951,531.166667 123.617285,529.333333 123.617285,526.8 L123.617285,526.8 L123.617285,428.6 L94.2172848,428.6 C91.6839515,428.6 89.8506181,428.033333 88.7172848,426.9 C87.5839515,425.766667 87.0172848,423.933333 87.0172848,421.4 L87.0172848,421.4 L87.0172848,397.2 C87.0172848,394.666667 87.5839515,392.833333 88.7172848,391.7 C89.8506181,390.566667 91.6839515,390 94.2172848,390 L94.2172848,390 L199.817285,390 C202.350618,390 204.183951,390.566667 205.317285,391.7 C206.450618,392.833333 207.017285,394.666667 207.017285,397.2 L207.017285,397.2 L207.017285,421.4 C207.017285,423.933333 206.450618,425.766667 205.317285,426.9 C204.183951,428.033333 202.350618,428.6 199.817285,428.6 L199.817285,428.6 L170.417285,428.6 L170.417285,526.8 C170.417285,529.333333 169.850618,531.166667 168.717285,532.3 C167.583951,533.433333 165.750618,534 163.217285,534 L163.217285,534 Z M148.017285,516 L148.017285,410 L189.017285,410 L189.017285,408 L105.017285,408 L105.017285,410 L146.017285,410 L146.017285,516 L148.017285,516 Z M310.337964,557.8 C311.671297,557.8 312.90463,557.6 314.037964,557.2 C315.171297,556.8 316.00463,556.333333 316.537964,555.8 L316.537964,555.8 L342.537964,534.2 C343.471297,533.4 344.171297,532.4 344.637964,531.2 C345.10463,530 345.337964,528.533333 345.337964,526.8 L345.337964,526.8 L345.337964,503 C345.337964,499.8 344.60463,497.466667 343.137964,496 C341.671297,494.533333 339.337964,493.8 336.137964,493.8 L336.137964,493.8 L318.737964,493.8 L318.737964,448.8 L342.537964,428.8 C343.471297,428 344.171297,427 344.637964,425.8 C345.10463,424.6 345.337964,423.133333 345.337964,421.4 L345.337964,421.4 L345.337964,397.2 C345.337964,394 344.60463,391.666667 343.137964,390.2 C341.671297,388.733333 339.337964,388 336.137964,388 L336.137964,388 L250.937964,388 C249.60463,388 248.371297,388.166667 247.237964,388.5 C246.10463,388.833333 245.20463,389.266667 244.537964,389.8 L244.537964,389.8 L218.737964,411.6 C217.80463,412.4 217.10463,413.4 216.637964,414.6 C216.171297,415.8 215.937964,417.266667 215.937964,419 L215.937964,419 L215.937964,443.2 C215.937964,446.4 216.671297,448.733333 218.137964,450.2 C219.60463,451.666667 221.937964,452.4 225.137964,452.4 L225.137964,452.4 L242.937964,452.4 L242.937964,497 L218.737964,517.4 C217.80463,518.2 217.10463,519.2 216.637964,520.4 C216.171297,521.6 215.937964,523.066667 215.937964,524.8 L215.937964,524.8 L215.937964,548.6 C215.937964,551.8 216.671297,554.133333 218.137964,555.6 C219.60463,557.066667 221.937964,557.8 225.137964,557.8 L225.137964,557.8 L310.337964,557.8 Z M336.137964,534 L250.937964,534 C248.40463,534 246.571297,533.433333 245.437964,532.3 C244.30463,531.166667 243.737964,529.333333 243.737964,526.8 L243.737964,526.8 L243.737964,503 C243.737964,500.466667 244.30463,498.633333 245.437964,497.5 C246.571297,496.366667 248.40463,495.8 250.937964,495.8 L250.937964,495.8 L270.737964,495.8 L270.737964,428.6 L250.937964,428.6 C248.40463,428.6 246.571297,428.033333 245.437964,426.9 C244.30463,425.766667 243.737964,423.933333 243.737964,421.4 L243.737964,421.4 L243.737964,397.2 C243.737964,394.666667 244.30463,392.833333 245.437964,391.7 C246.571297,390.566667 248.40463,390 250.937964,390 L250.937964,390 L336.137964,390 C338.671297,390 340.50463,390.566667 341.637964,391.7 C342.771297,392.833333 343.337964,394.666667 343.337964,397.2 L343.337964,397.2 L343.337964,421.4 C343.337964,423.933333 342.771297,425.766667 341.637964,426.9 C340.50463,428.033333 338.671297,428.6 336.137964,428.6 L336.137964,428.6 L316.737964,428.6 L316.737964,495.8 L336.137964,495.8 C338.671297,495.8 340.50463,496.366667 341.637964,497.5 C342.771297,498.633333 343.337964,500.466667 343.337964,503 L343.337964,503 L343.337964,526.8 C343.337964,529.333333 342.771297,531.166667 341.637964,532.3 C340.50463,533.433333 338.671297,534 336.137964,534 L336.137964,534 Z M325.337964,516 L325.337964,514 L294.737964,514 L294.737964,410 L325.337964,410 L325.337964,408 L261.737964,408 L261.737964,410 L292.737964,410 L292.737964,514 L261.737964,514 L261.737964,516 L325.337964,516 Z M400.858642,557.8 C402.191976,557.8 403.425309,557.6 404.558642,557.2 C405.691976,556.8 406.525309,556.333333 407.058642,555.8 L407.058642,555.8 L433.058642,534.2 C433.991976,533.4 434.691976,532.4 435.158642,531.2 C435.625309,530 435.858642,528.533333 435.858642,526.8 L435.858642,526.8 L435.858642,517.2 C443.458642,516.933333 449.891976,515.9 455.158642,514.1 C460.425309,512.3 464.725309,510 468.058642,507.2 L468.058642,507.2 L494.058642,485.6 C498.458642,481.866667 501.558642,477.366667 503.358642,472.1 C505.158642,466.833333 506.058642,461 506.058642,454.6 L506.058642,454.6 L506.058642,429 C506.058642,423 505.291976,417.466667 503.758642,412.4 C502.225309,407.333333 499.591976,403 495.858642,399.4 C492.125309,395.8 487.058642,393 480.658642,391 C474.258642,389 466.325309,388 456.858642,388 L456.858642,388 L395.658642,388 C394.325309,388 393.091976,388.166667 391.958642,388.5 C390.825309,388.833333 389.925309,389.266667 389.258642,389.8 L389.258642,389.8 L363.458642,411.6 C362.525309,412.4 361.825309,413.4 361.358642,414.6 C360.891976,415.8 360.658642,417.266667 360.658642,419 L360.658642,419 L360.658642,548.6 C360.658642,551.8 361.391976,554.133333 362.858642,555.6 C364.325309,557.066667 366.658642,557.8 369.858642,557.8 L369.858642,557.8 L400.858642,557.8 Z M426.658642,534 L395.658642,534 C393.125309,534 391.291976,533.433333 390.158642,532.3 C389.025309,531.166667 388.458642,529.333333 388.458642,526.8 L388.458642,526.8 L388.458642,397.2 C388.458642,394.666667 389.025309,392.833333 390.158642,391.7 C391.291976,390.566667 393.125309,390 395.658642,390 L395.658642,390 L456.858642,390 C474.991976,390 487.391976,393.6 494.058642,400.8 C500.725309,408 504.058642,417.4 504.058642,429 L504.058642,429 L504.058642,454.6 C504.058642,466.2 500.725309,475.6 494.058642,482.8 C487.391976,490 474.991976,493.6 456.858642,493.6 L456.858642,493.6 L433.858642,493.6 L433.858642,526.8 C433.858642,529.333333 433.291976,531.166667 432.158642,532.3 C431.025309,533.433333 429.191976,534 426.658642,534 L426.658642,534 Z M412.858642,516 L412.858642,476.6 L454.058642,476.6 C460.325309,476.6 465.425309,475.933333 469.358642,474.6 C473.291976,473.266667 476.325309,471.433333 478.458642,469.1 C480.591976,466.766667 482.058642,463.966667 482.858642,460.7 C483.658642,457.433333 484.058642,453.866667 484.058642,450 L484.058642,450 L484.058642,435.2 C484.058642,431.333333 483.658642,427.733333 482.858642,424.4 C482.058642,421.066667 480.591976,418.2 478.458642,415.8 C476.325309,413.4 473.291976,411.5 469.358642,410.1 C465.425309,408.7 460.325309,408 454.058642,408 L454.058642,408 L410.858642,408 L410.858642,516 L412.858642,516 Z M454.058642,474.6 L412.858642,474.6 L412.858642,410 L454.058642,410 C459.925309,410 464.691976,410.633333 468.358642,411.9 C472.025309,413.166667 474.858642,414.933333 476.858642,417.2 C478.858642,419.466667 480.225309,422.133333 480.958642,425.2 C481.691976,428.266667 482.058642,431.6 482.058642,435.2 L482.058642,435.2 L482.058642,450 C482.058642,453.6 481.691976,456.9 480.958642,459.9 C480.225309,462.9 478.858642,465.5 476.858642,467.7 C474.858642,469.9 472.025309,471.6 468.358642,472.8 C464.691976,474 459.925309,474.6 454.058642,474.6 L454.058642,474.6 Z M451.458642,457.6 C455.325309,457.6 457.858642,456.6 459.058642,454.6 C460.258642,452.6 460.858642,450.333333 460.858642,447.8 L460.858642,447.8 L460.858642,437.2 C460.858642,434.666667 460.258642,432.4 459.058642,430.4 C457.858642,428.4 455.325309,427.4 451.458642,427.4 L451.458642,427.4 L433.458642,427.4 L433.458642,457.6 L451.458642,457.6 Z M586.379321,557.8 C593.045988,557.8 599.045988,556.966667 604.379321,555.3 C609.712655,553.633333 614.245988,551.266667 617.979321,548.2 L617.979321,548.2 L643.779321,526.6 C647.645988,523.4 650.579321,519.466667 652.579321,514.8 C654.579321,510.133333 655.579321,504.8 655.579321,498.8 L655.579321,498.8 L655.579321,477.8 C655.579321,467 653.012655,459.033333 647.879321,453.9 C642.745988,448.766667 635.979321,445.266667 627.579321,443.4 L627.579321,443.4 L645.579321,428.4 C646.512655,427.6 647.212655,426.6 647.679321,425.4 C648.145988,424.2 648.379321,422.733333 648.379321,421 L648.379321,421 L648.379321,397.2 C648.379321,394 647.645988,391.666667 646.179321,390.2 C644.712655,388.733333 642.379321,388 639.179321,388 L639.179321,388 L583.179321,388 C576.379321,388 570.312655,388.833333 564.979321,390.5 C559.645988,392.166667 555.179321,394.466667 551.579321,397.4 L551.579321,397.4 L525.579321,419.2 C521.845988,422.4 518.979321,426.333333 516.979321,431 C514.979321,435.666667 513.979321,441 513.979321,447 L513.979321,447 L513.979321,468 C513.979321,477.6 516.012655,484.966667 520.079321,490.1 C524.145988,495.233333 529.712655,498.866667 536.779321,501 L536.779321,501 L516.779321,517.8 C515.845988,518.6 515.145988,519.6 514.679321,520.8 C514.212655,522 513.979321,523.466667 513.979321,525.2 L513.979321,525.2 L513.979321,548.6 C513.979321,551.8 514.712655,554.133333 516.179321,555.6 C517.645988,557.066667 519.979321,557.8 523.179321,557.8 L523.179321,557.8 L586.379321,557.8 Z M612.179321,534 L548.979321,534 C546.445988,534 544.612655,533.433333 543.479321,532.3 C542.345988,531.166667 541.779321,529.333333 541.779321,526.8 L541.779321,526.8 L541.779321,503.4 C541.779321,500.866667 542.345988,499.033333 543.479321,497.9 C544.612655,496.766667 546.445988,496.2 548.979321,496.2 L548.979321,496.2 L602.779321,496.2 C604.512655,496.2 605.812655,495.633333 606.679321,494.5 C607.545988,493.366667 607.979321,492 607.979321,490.4 C607.979321,488.133333 607.545988,486.466667 606.679321,485.4 C605.812655,484.333333 604.512655,483.733333 602.779321,483.6 L602.779321,483.6 L572.779321,479.4 C563.445988,478.066667 555.945988,475 550.279321,470.2 C544.612655,465.4 541.779321,457.4 541.779321,446.2 L541.779321,446.2 L541.779321,425.2 C541.779321,413.866667 545.445988,405.166667 552.779321,399.1 C560.112655,393.033333 570.245988,390 583.179321,390 L583.179321,390 L639.179321,390 C641.712655,390 643.545988,390.566667 644.679321,391.7 C645.812655,392.833333 646.379321,394.666667 646.379321,397.2 L646.379321,397.2 L646.379321,421 C646.379321,423.533333 645.812655,425.366667 644.679321,426.5 C643.545988,427.633333 641.712655,428.2 639.179321,428.2 L639.179321,428.2 L592.579321,428.2 C590.845988,428.2 589.512655,428.766667 588.579321,429.9 C587.645988,431.033333 587.179321,432.466667 587.179321,434.2 C587.179321,435.933333 587.645988,437.4 588.579321,438.6 C589.512655,439.8 590.845988,440.466667 592.579321,440.6 L592.579321,440.6 L622.379321,444.6 C631.712655,445.933333 639.245988,449 644.979321,453.8 C650.712655,458.6 653.579321,466.6 653.579321,477.8 L653.579321,477.8 L653.579321,498.8 C653.579321,510.133333 649.879321,518.833333 642.479321,524.9 C635.079321,530.966667 624.979321,534 612.179321,534 L612.179321,534 Z M609.579321,516 C616.379321,516 621.779321,514.1 625.779321,510.3 C629.779321,506.5 631.779321,501.666667 631.779321,495.8 L631.779321,495.8 L631.779321,484.2 C631.779321,477.266667 630.479321,472.466667 627.879321,469.8 C625.279321,467.133333 621.979321,465.4 617.979321,464.6 L617.979321,464.6 L575.779321,456 C572.712655,455.466667 570.245988,454.266667 568.379321,452.4 C566.512655,450.533333 565.579321,447.266667 565.579321,442.6 L565.579321,442.6 L565.579321,426.2 C565.579321,421.533333 567.245988,417.666667 570.579321,414.6 C573.912655,411.533333 578.379321,410 583.979321,410 L583.979321,410 L628.379321,410 L628.379321,408 L583.979321,408 C577.845988,408 572.912655,409.7 569.179321,413.1 C565.445988,416.5 563.579321,420.866667 563.579321,426.2 L563.579321,426.2 L563.579321,442.6 C563.579321,448.066667 564.679321,451.833333 566.879321,453.9 C569.079321,455.966667 571.912655,457.333333 575.379321,458 L575.379321,458 L617.579321,466.6 C621.312655,467.4 624.279321,468.966667 626.479321,471.3 C628.679321,473.633333 629.779321,477.933333 629.779321,484.2 L629.779321,484.2 L629.779321,495.8 C629.779321,501.133333 627.945988,505.5 624.279321,508.9 C620.612655,512.3 615.712655,514 609.579321,514 L609.579321,514 L559.779321,514 L559.779321,516 L609.579321,516 Z M736.1,557.8 C737.433333,557.8 738.666667,557.6 739.8,557.2 C740.933333,556.8 741.766667,556.333333 742.3,555.8 L742.3,555.8 L768.3,534.2 C769.233333,533.4 769.933333,532.4 770.4,531.2 C770.866667,530 771.1,528.533333 771.1,526.8 L771.1,526.8 L771.1,452.4 L772.7,452.4 C774.033333,452.4 775.266667,452.2 776.4,451.8 C777.533333,451.4 778.366667,450.933333 778.9,450.4 L778.9,450.4 L804.9,428.8 C805.833333,428 806.533333,427 807,425.8 C807.466667,424.6 807.7,423.133333 807.7,421.4 L807.7,421.4 L807.7,397.2 C807.7,394 806.966667,391.666667 805.5,390.2 C804.033333,388.733333 801.7,388 798.5,388 L798.5,388 L692.9,388 C691.566667,388 690.333333,388.166667 689.2,388.5 C688.066667,388.833333 687.166667,389.266667 686.5,389.8 L686.5,389.8 L660.7,411.6 C659.766667,412.4 659.066667,413.4 658.6,414.6 C658.133333,415.8 657.9,417.266667 657.9,419 L657.9,419 L657.9,443.2 C657.9,446.4 658.633333,448.733333 660.1,450.2 C661.566667,451.666667 663.9,452.4 667.1,452.4 L667.1,452.4 L694.5,452.4 L694.5,548.6 C694.5,551.8 695.233333,554.133333 696.7,555.6 C698.166667,557.066667 700.5,557.8 703.7,557.8 L703.7,557.8 L736.1,557.8 Z M761.9,534 L729.5,534 C726.966667,534 725.133333,533.433333 724,532.3 C722.866667,531.166667 722.3,529.333333 722.3,526.8 L722.3,526.8 L722.3,428.6 L692.9,428.6 C690.366667,428.6 688.533333,428.033333 687.4,426.9 C686.266667,425.766667 685.7,423.933333 685.7,421.4 L685.7,421.4 L685.7,397.2 C685.7,394.666667 686.266667,392.833333 687.4,391.7 C688.533333,390.566667 690.366667,390 692.9,390 L692.9,390 L798.5,390 C801.033333,390 802.866667,390.566667 804,391.7 C805.133333,392.833333 805.7,394.666667 805.7,397.2 L805.7,397.2 L805.7,421.4 C805.7,423.933333 805.133333,425.766667 804,426.9 C802.866667,428.033333 801.033333,428.6 798.5,428.6 L798.5,428.6 L769.1,428.6 L769.1,526.8 C769.1,529.333333 768.533333,531.166667 767.4,532.3 C766.266667,533.433333 764.433333,534 761.9,534 L761.9,534 Z M746.7,516 L746.7,410 L787.7,410 L787.7,408 L703.7,408 L703.7,410 L744.7,410 L744.7,516 L746.7,516 Z M878.820679,560.8 C892.020679,560.8 902.820679,559.7 911.220679,557.5 C919.620679,555.3 926.154012,552.2 930.820679,548.2 L930.820679,548.2 L956.620679,526.6 C961.154012,522.866667 964.287345,518.4 966.020679,513.2 C967.754012,508 968.620679,502.333333 968.620679,496.2 L968.620679,496.2 L968.620679,428 C968.620679,421.733333 967.754012,415.966667 966.020679,410.7 C964.287345,405.433333 961.054012,400.9 956.320679,397.1 C951.587345,393.3 945.054012,390.333333 936.720679,388.2 C928.387345,386.066667 917.687345,385 904.620679,385 C891.287345,385 880.454012,386.1 872.120679,388.3 C863.787345,390.5 857.287345,393.6 852.620679,397.6 L852.620679,397.6 L826.620679,419.2 C822.087345,422.933333 818.954012,427.433333 817.220679,432.7 C815.487345,437.966667 814.620679,443.666667 814.620679,449.8 L814.620679,449.8 L814.620679,512 C814.620679,518.266667 815.520679,524.333333 817.320679,530.2 C819.120679,536.066667 822.387345,541.266667 827.120679,545.8 C831.854012,550.333333 838.387345,553.966667 846.720679,556.7 C855.054012,559.433333 865.754012,560.8 878.820679,560.8 Z M904.620679,537 C892.220679,537 881.954012,536 873.820679,534 C865.687345,532 859.320679,529.233333 854.720679,525.7 C850.120679,522.166667 846.920679,517.9 845.120679,512.9 C843.320679,507.9 842.420679,502.333333 842.420679,496.2 L842.420679,496.2 L842.420679,428 C842.420679,421.866667 843.320679,416.3 845.120679,411.3 C846.920679,406.3 850.120679,402 854.720679,398.4 C859.320679,394.8 865.687345,392 873.820679,390 C881.954012,388 892.220679,387 904.620679,387 C917.020679,387 927.254012,388 935.320679,390 C943.387345,392 949.720679,394.8 954.320679,398.4 C958.920679,402 962.120679,406.3 963.920679,411.3 C965.720679,416.3 966.620679,421.866667 966.620679,428 L966.620679,428 L966.620679,496.2 C966.620679,502.333333 965.720679,507.9 963.920679,512.9 C962.120679,517.9 958.920679,522.166667 954.320679,525.7 C949.720679,529.233333 943.387345,532 935.320679,534 C927.254012,536 917.020679,537 904.620679,537 Z M904.220679,518.6 C919.820679,518.6 930.487345,516.1 936.220679,511.1 C941.954012,506.1 944.820679,499.6 944.820679,491.6 L944.820679,491.6 L944.820679,432.6 C944.820679,424.6 941.954012,418.1 936.220679,413.1 C930.487345,408.1 919.820679,405.6 904.220679,405.6 C888.620679,405.6 878.020679,408.1 872.420679,413.1 C866.820679,418.1 864.020679,424.6 864.020679,432.6 L864.020679,432.6 L864.020679,491.6 C864.020679,499.6 866.820679,506.1 872.420679,511.1 C878.020679,516.1 888.620679,518.6 904.220679,518.6 Z M904.220679,516.6 C889.420679,516.6 879.354012,514.3 874.020679,509.7 C868.687345,505.1 866.020679,499.066667 866.020679,491.6 L866.020679,491.6 L866.020679,432.6 C866.020679,425.133333 868.687345,419.1 874.020679,414.5 C879.354012,409.9 889.420679,407.6 904.220679,407.6 C919.020679,407.6 929.154012,409.9 934.620679,414.5 C940.087345,419.1 942.820679,425.133333 942.820679,432.6 L942.820679,432.6 L942.820679,491.6 C942.820679,499.066667 940.087345,505.1 934.620679,509.7 C929.154012,514.3 919.020679,516.6 904.220679,516.6 Z M904.620679,498.4 C911.820679,498.4 916.420679,497.5 918.420679,495.7 C920.420679,493.9 921.420679,491.666667 921.420679,489 L921.420679,489 L921.420679,435.2 C921.420679,432.666667 920.420679,430.5 918.420679,428.7 C916.420679,426.9 911.820679,426 904.620679,426 C897.420679,426 892.820679,426.9 890.820679,428.7 C888.820679,430.5 887.820679,432.666667 887.820679,435.2 L887.820679,435.2 L887.820679,489 C887.820679,491.666667 888.820679,493.9 890.820679,495.7 C892.820679,497.5 897.420679,498.4 904.620679,498.4 Z M893.620679,495 C892.154012,494.333333 891.154012,493.5 890.620679,492.5 C890.087345,491.5 889.820679,490.333333 889.820679,489 L889.820679,489 L889.820679,451.2 C891.287345,451.733333 892.287345,452.5 892.820679,453.5 C893.354012,454.5 893.620679,455.666667 893.620679,457 L893.620679,457 L893.620679,495 Z M1082.54136,557.8 C1083.87469,557.8 1085.10802,557.6 1086.24136,557.2 C1087.37469,556.8 1088.20802,556.333333 1088.74136,555.8 L1088.74136,555.8 L1114.74136,534.2 C1115.67469,533.4 1116.37469,532.4 1116.84136,531.2 C1117.30802,530 1117.54136,528.533333 1117.54136,526.8 L1117.54136,526.8 L1117.54136,503 C1117.54136,499.8 1116.80802,497.466667 1115.34136,496 C1113.87469,494.533333 1111.54136,493.8 1108.34136,493.8 L1108.34136,493.8 L1068.14136,493.8 C1064.80802,493.8 1062.27469,493.233333 1060.54136,492.1 C1058.80802,490.966667 1057.94136,489 1057.94136,486.2 L1057.94136,486.2 L1057.94136,452.4 L1082.54136,452.4 C1083.87469,452.4 1085.10802,452.2 1086.24136,451.8 C1087.37469,451.4 1088.20802,450.933333 1088.74136,450.4 L1088.74136,450.4 L1114.74136,428.8 C1115.67469,428 1116.37469,427 1116.84136,425.8 C1117.30802,424.6 1117.54136,423.133333 1117.54136,421.4 L1117.54136,421.4 L1117.54136,397.2 C1117.54136,394 1116.80802,391.666667 1115.34136,390.2 C1113.87469,388.733333 1111.54136,388 1108.34136,388 L1108.34136,388 L1059.54136,388 C1050.87469,388 1043.34136,388.866667 1036.94136,390.6 C1030.54136,392.333333 1025.27469,394.933333 1021.14136,398.4 L1021.14136,398.4 L995.141358,420.2 C991.008024,423.8 987.874691,428.3 985.741358,433.7 C983.608024,439.1 982.541358,445.466667 982.541358,452.8 L982.541358,452.8 L982.541358,509 C982.541358,523.4 986.708024,535.133333 995.041358,544.2 C1003.37469,553.266667 1016.27469,557.8 1033.74136,557.8 L1033.74136,557.8 L1082.54136,557.8 Z M1108.34136,534 L1059.54136,534 C1042.87469,534 1030.50802,530.666667 1022.44136,524 C1014.37469,517.333333 1010.34136,507.066667 1010.34136,493.2 L1010.34136,493.2 L1010.34136,431 C1010.34136,417.133333 1014.37469,406.833333 1022.44136,400.1 C1030.50802,393.366667 1042.87469,390 1059.54136,390 L1059.54136,390 L1108.34136,390 C1110.87469,390 1112.70802,390.566667 1113.84136,391.7 C1114.97469,392.833333 1115.54136,394.666667 1115.54136,397.2 L1115.54136,397.2 L1115.54136,421.4 C1115.54136,423.933333 1114.97469,425.766667 1113.84136,426.9 C1112.70802,428.033333 1110.87469,428.6 1108.34136,428.6 L1108.34136,428.6 L1068.14136,428.6 C1064.00802,428.6 1060.94136,429.433333 1058.94136,431.1 C1056.94136,432.766667 1055.94136,435.266667 1055.94136,438.6 L1055.94136,438.6 L1055.94136,486.2 C1055.94136,489.533333 1056.94136,491.966667 1058.94136,493.5 C1060.94136,495.033333 1064.00802,495.8 1068.14136,495.8 L1068.14136,495.8 L1108.34136,495.8 C1110.87469,495.8 1112.70802,496.366667 1113.84136,497.5 C1114.97469,498.633333 1115.54136,500.466667 1115.54136,503 L1115.54136,503 L1115.54136,526.8 C1115.54136,529.333333 1114.97469,531.166667 1113.84136,532.3 C1112.70802,533.433333 1110.87469,534 1108.34136,534 L1108.34136,534 Z M1097.34136,516 L1097.34136,514 L1063.94136,514 C1051.94136,514 1043.94136,512.2 1039.94136,508.6 C1035.94136,505 1033.94136,498.866667 1033.94136,490.2 L1033.94136,490.2 L1033.94136,434.2 C1033.94136,425.4 1036.00802,419.166667 1040.14136,415.5 C1044.27469,411.833333 1052.20802,410 1063.94136,410 L1063.94136,410 L1097.34136,410 L1097.34136,408 L1063.94136,408 C1051.14136,408 1042.60802,410 1038.34136,414 C1034.07469,418 1031.94136,424.733333 1031.94136,434.2 L1031.94136,434.2 L1031.94136,490.2 C1031.94136,499.4 1034.04136,506 1038.24136,510 C1042.44136,514 1051.00802,516 1063.94136,516 L1063.94136,516 L1097.34136,516 Z M1171.06204,557.8 C1172.39537,557.8 1173.6287,557.6 1174.76204,557.2 C1175.89537,556.8 1176.7287,556.333333 1177.26204,555.8 L1177.26204,555.8 L1203.26204,534.2 C1204.19537,533.4 1204.89537,532.4 1205.36204,531.2 C1205.8287,530 1206.06204,528.533333 1206.06204,526.8 L1206.06204,526.8 L1206.06204,505 C1206.99537,505.133333 1207.7287,505.6 1208.26204,506.4 C1208.79537,507.2 1209.06204,508.266667 1209.06204,509.6 L1209.06204,509.6 L1209.06204,548.6 C1209.06204,551.8 1209.79537,554.133333 1211.26204,555.6 C1212.7287,557.066667 1215.06204,557.8 1218.26204,557.8 L1218.26204,557.8 L1249.06204,557.8 C1250.39537,557.8 1251.6287,557.6 1252.76204,557.2 C1253.89537,556.8 1254.7287,556.333333 1255.26204,555.8 L1255.26204,555.8 L1281.26204,534.2 C1282.19537,533.4 1282.89537,532.4 1283.36204,531.2 C1283.8287,530 1284.06204,528.533333 1284.06204,526.8 L1284.06204,526.8 L1284.06204,470.4 C1284.06204,462.4 1281.9287,455.8 1277.66204,450.6 C1273.39537,445.4 1267.66204,442.333333 1260.46204,441.4 L1260.46204,441.4 L1279.66204,397.4 C1280.99537,394.466667 1281.1287,392.166667 1280.06204,390.5 C1278.99537,388.833333 1276.79537,388 1273.46204,388 L1273.46204,388 L1242.66204,388 C1240.9287,388 1239.36204,388.2 1237.96204,388.6 C1236.56204,389 1235.39537,389.6 1234.46204,390.4 L1234.46204,390.4 L1208.66204,412.2 C1208.1287,412.6 1207.66204,413.1 1207.26204,413.7 C1206.86204,414.3 1206.46204,414.866667 1206.06204,415.4 L1206.06204,415.4 L1206.06204,397.2 C1206.06204,394 1205.3287,391.666667 1203.86204,390.2 C1202.39537,388.733333 1200.06204,388 1196.86204,388 L1196.86204,388 L1165.86204,388 C1164.5287,388 1163.29537,388.166667 1162.16204,388.5 C1161.0287,388.833333 1160.1287,389.266667 1159.46204,389.8 L1159.46204,389.8 L1133.66204,411.6 C1132.7287,412.4 1132.0287,413.4 1131.56204,414.6 C1131.09537,415.8 1130.86204,417.266667 1130.86204,419 L1130.86204,419 L1130.86204,548.6 C1130.86204,551.8 1131.59537,554.133333 1133.06204,555.6 C1134.5287,557.066667 1136.86204,557.8 1140.06204,557.8 L1140.06204,557.8 L1171.06204,557.8 Z M1196.86204,534 L1165.86204,534 C1163.3287,534 1161.49537,533.433333 1160.36204,532.3 C1159.2287,531.166667 1158.66204,529.333333 1158.66204,526.8 L1158.66204,526.8 L1158.66204,397.2 C1158.66204,394.666667 1159.2287,392.833333 1160.36204,391.7 C1161.49537,390.566667 1163.3287,390 1165.86204,390 L1165.86204,390 L1196.86204,390 C1199.39537,390 1201.2287,390.566667 1202.36204,391.7 C1203.49537,392.833333 1204.06204,394.666667 1204.06204,397.2 L1204.06204,397.2 L1204.06204,443.2 L1212.06204,443.2 L1232.66204,396.6 C1233.59537,394.2 1234.86204,392.5 1236.46204,391.5 C1238.06204,390.5 1240.1287,390 1242.66204,390 L1242.66204,390 L1273.46204,390 C1275.7287,390 1277.26204,390.566667 1278.06204,391.7 C1278.86204,392.833333 1278.79537,394.466667 1277.86204,396.6 L1277.86204,396.6 L1257.46204,443.2 C1264.9287,443.6 1270.89537,446.233333 1275.36204,451.1 C1279.8287,455.966667 1282.06204,462.4 1282.06204,470.4 L1282.06204,470.4 L1282.06204,526.8 C1282.06204,529.333333 1281.49537,531.166667 1280.36204,532.3 C1279.2287,533.433333 1277.39537,534 1274.86204,534 L1274.86204,534 L1244.06204,534 C1241.5287,534 1239.69537,533.433333 1238.56204,532.3 C1237.4287,531.166667 1236.86204,529.333333 1236.86204,526.8 L1236.86204,526.8 L1236.86204,487.8 C1236.86204,485.666667 1236.3287,484 1235.26204,482.8 C1234.19537,481.6 1232.59537,481 1230.46204,481 L1230.46204,481 L1204.06204,481 L1204.06204,526.8 C1204.06204,529.333333 1203.49537,531.166667 1202.36204,532.3 C1201.2287,533.433333 1199.39537,534 1196.86204,534 L1196.86204,534 Z M1182.46204,516 L1182.46204,463.2 L1236.26204,463.2 C1243.59537,463.2 1249.1287,464.533333 1252.86204,467.2 C1256.59537,469.866667 1258.46204,474.4 1258.46204,480.8 L1258.46204,480.8 L1258.46204,516 L1260.46204,516 L1260.46204,480.8 C1260.46204,473.866667 1258.46204,468.866667 1254.46204,465.8 C1250.46204,462.733333 1244.39537,461.2 1236.26204,461.2 L1236.26204,461.2 L1228.06204,461.2 L1251.06204,408 L1248.86204,408 L1225.86204,461.2 L1182.46204,461.2 L1182.46204,408 L1180.46204,408 L1180.46204,516 L1182.46204,516 Z" id="TIPSTOCK"></path>
        </g>
    </g>
</svg>