<?xml version="1.0" encoding="UTF-8"?>
<svg width="256px" height="209px" viewBox="0 0 256 209" version="1.1" xmlns="http://www.w3.org/2000/svg" xmlns:xlink="http://www.w3.org/1999/xlink">
    <title>twitter</title>
    <g id="Page-1" stroke="none" stroke-width="1" fill="none" fill-rule="evenodd">
        <g id="twitter" transform="translate(0.000000, 0.822000)" fill="#FFFFFF" fill-rule="nonzero">
            <path d="M256,24.6280259 C246.580841,28.8052672 236.458451,31.6284868 225.834156,32.8982333 C236.678503,26.3978053 245.00583,16.1049929 248.927437,3.84107685 C238.779765,9.8592633 227.539325,14.2303376 215.57599,16.586298 C205.994835,6.3786971 192.34506,-2.77555756e-15 177.239197,-2.77555756e-15 C148.232605,-2.77555756e-15 124.716076,23.5155931 124.716076,52.5203116 C124.716076,56.6366875 125.181462,60.6453784 126.076652,64.4892644 C82.4258385,62.2990453 43.7257252,41.389429 17.821398,9.6139288 C13.3005011,17.3709938 10.710443,26.3931234 10.710443,36.0182889 C10.710443,54.239526 19.9835254,70.3154907 34.0762135,79.7337137 C25.4660961,79.4612239 17.3681846,77.0987088 10.2862577,73.1649292 C10.2825122,73.3840448 10.2825122,73.6040967 10.2825122,73.825085 C10.2825122,99.272453 28.3867003,120.500443 52.413563,125.32473 C48.0059695,126.525184 43.3661509,127.166612 38.5755734,127.166612 C35.1914554,127.166612 31.9009766,126.837938 28.694773,126.224602 C35.3777973,147.091145 54.7742053,162.275665 77.7569918,162.69985 C59.7820257,176.785983 37.1354036,185.182604 12.5289147,185.182604 C8.28987161,185.182604 4.10888474,184.93446 0,184.449409 C23.2431033,199.351139 50.8507261,208.045532 80.5109185,208.045532 C177.116529,208.045532 229.943977,128.014982 229.943977,58.6106002 C229.943977,56.3332968 229.893412,54.0681664 229.792282,51.8161454 C240.053257,44.4111635 248.958338,35.1605545 256,24.6280259" id="Path"></path>
        </g>
    </g>
</svg>