<?xml version="1.0" encoding="UTF-8"?>
<svg width="52.1425781px" height="9.39648438px" viewBox="0 0 52.1425781 9.39648438" version="1.1" xmlns="http://www.w3.org/2000/svg" xmlns:xlink="http://www.w3.org/1999/xlink">
    <title>Group</title>
    <g id="Page-1" stroke="none" stroke-width="1" fill="none" fill-rule="evenodd">
        <g id="Group" fill="#FF4D83" fill-rule="nonzero">
            <path d="M5.4375,7.79296875 L5.296875,7.79296875 L2.09765625,1.42382812 L1.75195313,5.390625 C1.73242188,5.609375 1.72265625,5.81640625 1.72265625,6.01171875 C1.72265625,6.58203125 1.83886719,7.02148438 2.07128906,7.33007812 C2.30371094,7.63867188 2.6796875,7.8515625 3.19921875,7.96875 L3.19921875,8.15039062 L0,8.15039062 L0,7.96875 C0.28515625,7.8671875 0.537109375,7.71386719 0.755859375,7.50878906 C0.974609375,7.30371094 1.14257812,7.06445312 1.25976562,6.79101562 C1.38476562,6.49023438 1.4765625,6.01171875 1.53515625,5.35546875 L1.90429688,1.13085938 C1.75585938,0.853515625 1.5859375,0.654296875 1.39453125,0.533203125 C1.203125,0.412109375 0.9609375,0.345703125 0.66796875,0.333984375 L0.66796875,0.15234375 L3.50390625,0.15234375 C3.48828125,0.19140625 3.47851562,0.216796875 3.47460938,0.228515625 C3.40039062,0.408203125 3.36328125,0.548828125 3.36328125,0.650390625 C3.36328125,0.837890625 3.46289062,1.13085938 3.66210938,1.52929688 L5.9296875,6.02929688 L7.8046875,1.65234375 C7.953125,1.30078125 8.02734375,1.03320312 8.02734375,0.849609375 C8.02734375,0.662109375 7.94921875,0.4296875 7.79296875,0.15234375 L10.6113281,0.15234375 L10.6113281,0.333984375 C10.2207031,0.388671875 9.9375,0.502929688 9.76171875,0.676757812 C9.5859375,0.850585938 9.49804688,1.10546875 9.49804688,1.44140625 C9.49804688,1.546875 9.50390625,1.64648438 9.515625,1.74023438 L9.53320312,1.88671875 L10.0253906,6.234375 C10.0332031,6.29296875 10.0400391,6.34375 10.0458984,6.38671875 C10.0517578,6.4296875 10.0703125,6.55273438 10.1015625,6.75585938 C10.1601562,7.13476562 10.2763672,7.41601562 10.4501953,7.59960938 C10.6240234,7.78320312 10.8925781,7.90625 11.2558594,7.96875 L11.2558594,8.15039062 L7.52929687,8.15039062 L7.52929687,7.96875 C7.93945312,7.8671875 8.24121094,7.73339844 8.43457031,7.56738281 C8.62792969,7.40136719 8.72460938,7.19140625 8.72460938,6.9375 C8.72460938,6.83984375 8.7109375,6.6796875 8.68359375,6.45703125 L8.109375,1.453125 L5.4375,7.79296875 Z M8.35546875,7.8515625 L10.1542969,7.8515625 L9.84960938,7.60546875 C9.71679688,7.5 9.62890625,7.27148438 9.5859375,6.91992188 L8.94140625,1.32421875 C8.93359375,1.22265625 8.9296875,1.15234375 8.9296875,1.11328125 C8.9296875,1.0234375 8.94921875,0.946289062 8.98828125,0.881835938 C9.02734375,0.817382812 9.10742188,0.736328125 9.22851562,0.638671875 L9.5625,0.375 L8.203125,0.375 L8.94140625,6.83789062 L8.96484375,6.96679688 C8.97265625,7.06054688 8.9765625,7.13085938 8.9765625,7.17773438 C8.9765625,7.27539062 8.95800781,7.3515625 8.92089844,7.40625 C8.88378906,7.4609375 8.80078125,7.53515625 8.671875,7.62890625 L8.35546875,7.8515625 Z M5.34960938,7.453125 L5.671875,6.69140625 L2.9765625,1.32421875 C2.84375,1.046875 2.77734375,0.845703125 2.77734375,0.720703125 C2.77734375,0.599609375 2.80859375,0.484375 2.87109375,0.375 L1.5234375,0.375 C1.7421875,0.53125 1.90625,0.697265625 2.015625,0.873046875 C2.1640625,1.09570312 2.29101562,1.31640625 2.39648438,1.53515625 L5.34960938,7.453125 Z M2.00390625,7.8515625 C1.81640625,7.6484375 1.68847656,7.48144531 1.62011719,7.35058594 C1.55175781,7.21972656 1.5,7.05273438 1.46484375,6.84960938 C1.37109375,7.08398438 1.26757812,7.27148438 1.15429688,7.41210938 C1.04101562,7.55273438 0.87890625,7.69921875 0.66796875,7.8515625 L2.00390625,7.8515625 Z" id="Shape"></path>
            <path d="M14.8125,7.60546875 C14.3320312,8.01171875 13.8164062,8.21484375 13.265625,8.21484375 C12.8242188,8.21484375 12.4716797,8.10058594 12.2080078,7.87207031 C11.9443359,7.64355469 11.8125,7.34375 11.8125,6.97265625 C11.8125,6.4453125 12.0703125,6.03125 12.5859375,5.73046875 C13.1015625,5.4296875 13.84375,5.25976562 14.8125,5.22070312 L14.8125,5.05664062 L14.8125,4.97460938 C14.8125,4.66992188 14.7988281,4.42089844 14.7714844,4.22753906 C14.7441406,4.03417969 14.7050781,3.88867188 14.6542969,3.79101562 C14.5957031,3.67773438 14.5126953,3.58691406 14.4052734,3.51855469 C14.2978516,3.45019531 14.1816406,3.41601562 14.0566406,3.41601562 C13.8730469,3.41601562 13.7285156,3.47558594 13.6230469,3.59472656 C13.5175781,3.71386719 13.4511719,3.8984375 13.4238281,4.1484375 C13.3925781,4.39453125 13.3417969,4.56152344 13.2714844,4.64941406 C13.2011719,4.73730469 13.0800781,4.78125 12.9082031,4.78125 C12.7753906,4.78125 12.6640625,4.734375 12.5742188,4.640625 C12.484375,4.546875 12.4394531,4.42578125 12.4394531,4.27734375 C12.4394531,4.078125 12.5117188,3.89746094 12.65625,3.73535156 C12.8007812,3.57324219 13.0009766,3.4453125 13.2568359,3.3515625 C13.5126953,3.2578125 13.7929688,3.2109375 14.0976562,3.2109375 C14.4921875,3.2109375 14.8378906,3.29003906 15.1347656,3.44824219 C15.4316406,3.60644531 15.6523438,3.82617188 15.796875,4.10742188 C15.875,4.25195312 15.9306641,4.4140625 15.9638672,4.59375 C15.9970703,4.7734375 16.0136719,5.02148438 16.0136719,5.33789062 L16.0136719,7.02539062 C16.0136719,7.34960938 16.0615234,7.58007812 16.1572266,7.71679688 C16.2529297,7.85351562 16.4335938,7.9453125 16.6992188,7.9921875 L16.6992188,8.15039062 L14.8125,8.15039062 L14.8125,7.60546875 Z M14.8125,7.34765625 L14.8125,5.40820312 C14.4335938,5.46679688 14.1083984,5.56445312 13.8369141,5.70117188 C13.5654297,5.83789062 13.3574219,6.01171875 13.2128906,6.22265625 C13.0683594,6.43359375 12.9960938,6.66601562 12.9960938,6.91992188 C12.9960938,7.17773438 13.0732422,7.39160156 13.2275391,7.56152344 C13.3818359,7.73144531 13.5761719,7.81640625 13.8105469,7.81640625 C14.0996094,7.81640625 14.4335938,7.66015625 14.8125,7.34765625 Z M15.0117188,7.89257812 L15.8789062,7.89257812 L15.7441406,7.78710938 C15.7441406,7.78710938 15.7412109,7.78417969 15.7353516,7.77832031 C15.7294922,7.77246094 15.7246094,7.76953125 15.7207031,7.76953125 L15.6445312,7.7109375 C15.5859375,7.65234375 15.5566406,7.578125 15.5566406,7.48828125 L15.5566406,7.37109375 L15.5507812,7.3125 L15.5507812,5.3203125 C15.5507812,4.77734375 15.4882812,4.37109375 15.3632812,4.1015625 C15.1875,3.7421875 14.9121094,3.51171875 14.5371094,3.41015625 C14.7871094,3.5859375 14.9335938,3.86523438 14.9765625,4.24804688 C15,4.48242188 15.0117188,4.84570312 15.0117188,5.33789062 L15.0117188,7.89257812 Z M13.5234375,8.05078125 C12.859375,7.9140625 12.5273438,7.55078125 12.5273438,6.9609375 C12.5273438,6.578125 12.6816406,6.25 12.9902344,5.9765625 C13.1269531,5.85546875 13.390625,5.70117188 13.78125,5.51367188 C13.3085938,5.60351562 12.9414062,5.7265625 12.6796875,5.8828125 C12.234375,6.15625 12.0117188,6.51757812 12.0117188,6.96679688 C12.0117188,7.29101562 12.1298828,7.55371094 12.3662109,7.75488281 C12.6025391,7.95605469 12.9082031,8.05664062 13.2832031,8.05664062 C13.3730469,8.05664062 13.453125,8.0546875 13.5234375,8.05078125 Z M13.5234375,3.421875 C13.25,3.4921875 13.0302734,3.60644531 12.8642578,3.76464844 C12.6982422,3.92285156 12.6152344,4.09960938 12.6152344,4.29492188 C12.6152344,4.36914062 12.6328125,4.42773438 12.6679688,4.47070312 C12.703125,4.51367188 12.75,4.53515625 12.8085938,4.53515625 C12.8632812,4.53515625 12.9042969,4.51855469 12.9316406,4.48535156 C12.9589844,4.45214844 12.9824219,4.38476562 13.0019531,4.28320312 C13.0449219,4.06445312 13.1005859,3.89941406 13.1689453,3.78808594 C13.2373047,3.67675781 13.3554688,3.5546875 13.5234375,3.421875 Z" id="Shape"></path>
            <path d="M18.5800781,4.65625 C18.4316406,4.8046875 18.3330078,4.91699219 18.2841797,4.99316406 C18.2353516,5.06933594 18.2109375,5.15625 18.2109375,5.25390625 C18.2109375,5.43359375 18.3359375,5.54101562 18.5859375,5.57617188 C18.7109375,5.59179688 18.8945312,5.59960938 19.1367188,5.59960938 L20.25,5.59960938 C20.8476562,5.59960938 21.2734375,5.66015625 21.5273438,5.78125 C21.703125,5.8671875 21.8554688,5.98144531 21.984375,6.12402344 C22.1132812,6.26660156 22.2119141,6.4296875 22.2802734,6.61328125 C22.3486328,6.796875 22.3828125,6.99414062 22.3828125,7.20507812 C22.3828125,7.63085938 22.2636719,8.01074219 22.0253906,8.34472656 C21.7871094,8.67871094 21.4501953,8.9375 21.0146484,9.12109375 C20.5791016,9.3046875 20.0878906,9.39648438 19.5410156,9.39648438 C18.8027344,9.39648438 18.2070312,9.25195312 17.7539062,8.96289062 C17.3007812,8.67382812 17.0742188,8.29492188 17.0742188,7.82617188 C17.0742188,7.58007812 17.1367188,7.35839844 17.2617188,7.16113281 C17.3867188,6.96386719 17.5957031,6.75585938 17.8886719,6.53710938 C17.7519531,6.40820312 17.6572266,6.29199219 17.6044922,6.18847656 C17.5517578,6.08496094 17.5253906,5.96679688 17.5253906,5.83398438 C17.5253906,5.70507812 17.5458984,5.58789062 17.5869141,5.48242188 C17.6279297,5.37695312 17.7060547,5.25976562 17.8212891,5.13085938 C17.9365234,5.00195312 18.1035156,4.83984375 18.3222656,4.64453125 L18.4160156,4.5625 C18.0839844,4.37109375 17.8408203,4.15429688 17.6865234,3.91210938 C17.5322266,3.66992188 17.4550781,3.38867188 17.4550781,3.06835938 C17.4550781,2.72851562 17.5429688,2.421875 17.71875,2.1484375 C17.8945312,1.875 18.1416016,1.65820312 18.4599609,1.49804687 C18.7783203,1.33789062 19.1523438,1.24609375 19.5820312,1.22265625 C19.671875,0.828125 19.8017578,0.544921875 19.9716797,0.373046875 C20.1416016,0.201171875 20.3710938,0.115234375 20.6601562,0.115234375 C20.8320312,0.115234375 20.9970703,0.149414062 21.1552734,0.217773438 C21.3134766,0.286132812 21.4394531,0.376953125 21.5332031,0.490234375 C21.6269531,0.603515625 21.6738281,0.724609375 21.6738281,0.853515625 C21.6738281,0.978515625 21.6337891,1.08300781 21.5537109,1.16699219 C21.4736328,1.25097656 21.375,1.29296875 21.2578125,1.29296875 C21.1679688,1.29296875 21.0800781,1.265625 20.9941406,1.2109375 C20.9082031,1.15625 20.8417969,1.08789062 20.7949219,1.00585938 L20.7070312,0.8359375 C20.609375,0.6484375 20.4785156,0.5546875 20.3144531,0.5546875 C20.0410156,0.5546875 19.8632812,0.77734375 19.78125,1.22265625 C20.0898438,1.234375 20.3720703,1.2890625 20.6279297,1.38671875 C20.8837891,1.484375 21.1064453,1.61230469 21.2958984,1.77050781 C21.4853516,1.92871094 21.6308594,2.11621094 21.7324219,2.33300781 C21.8339844,2.54980469 21.8847656,2.78320312 21.8847656,3.03320312 C21.8847656,3.36523438 21.7861328,3.6796875 21.5888672,3.9765625 C21.3916016,4.2734375 21.1289062,4.5078125 20.8007812,4.6796875 C20.4726562,4.8515625 20.1152344,4.9375 19.7285156,4.9375 C19.3769531,4.9375 18.9941406,4.84375 18.5800781,4.65625 Z M20.7070312,3.00976562 C20.7070312,2.50585938 20.6171875,2.11132812 20.4375,1.82617188 C20.2578125,1.54101562 20.0136719,1.3984375 19.7050781,1.3984375 C19.3808594,1.3984375 19.1220703,1.55078125 18.9287109,1.85546875 C18.7353516,2.16015625 18.6386719,2.56640625 18.6386719,3.07421875 C18.6386719,3.56640625 18.7333984,3.9609375 18.9228516,4.2578125 C19.1123047,4.5546875 19.3632812,4.703125 19.6757812,4.703125 C19.9960938,4.703125 20.2480469,4.55078125 20.4316406,4.24609375 C20.6152344,3.94140625 20.7070312,3.52929688 20.7070312,3.00976562 Z M18.1289062,6.6953125 C17.7851562,6.99609375 17.6132812,7.33203125 17.6132812,7.703125 C17.6132812,7.9765625 17.6982422,8.22363281 17.8681641,8.44433594 C18.0380859,8.66503906 18.2763672,8.83691406 18.5830078,8.95996094 C18.8896484,9.08300781 19.2363281,9.14453125 19.6230469,9.14453125 C19.9238281,9.14453125 20.2080078,9.10351562 20.4755859,9.02148438 C20.7431641,8.93945312 20.9755859,8.82714844 21.1728516,8.68457031 C21.3701172,8.54199219 21.5224609,8.37792969 21.6298828,8.19238281 C21.7373047,8.00683594 21.7910156,7.80664062 21.7910156,7.59179688 C21.7910156,7.34570312 21.7119141,7.15136719 21.5537109,7.00878906 C21.3955078,6.86621094 21.1796875,6.79296875 20.90625,6.7890625 L20.4550781,6.77148438 L20.3085938,6.77148438 L19.1660156,6.77148438 C18.9746094,6.77148438 18.796875,6.765625 18.6328125,6.75390625 C18.453125,6.75 18.2851562,6.73046875 18.1289062,6.6953125 Z M21.8261719,8.125 C22.0097656,7.86328125 22.1015625,7.60351562 22.1015625,7.34570312 C22.1015625,7.00976562 22.0058594,6.72851562 21.8144531,6.50195312 C21.6699219,6.33007812 21.5009766,6.20996094 21.3076172,6.14160156 C21.1142578,6.07324219 20.8496094,6.0390625 20.5136719,6.0390625 L19.7050781,6.03320312 L19.0371094,6.02734375 C18.7480469,6.02734375 18.5214844,6.01074219 18.3574219,5.97753906 C18.1933594,5.94433594 18.0800781,5.88867188 18.0175781,5.81054688 C17.9550781,5.73242188 17.9238281,5.61914062 17.9238281,5.47070312 C17.9238281,5.40429688 17.9472656,5.31054688 17.9941406,5.18945312 C17.8769531,5.31835938 17.7998047,5.42382812 17.7626953,5.50585938 C17.7255859,5.58789062 17.7070312,5.6875 17.7070312,5.8046875 C17.7070312,5.95703125 17.7431641,6.08984375 17.8154297,6.203125 C17.8876953,6.31640625 17.9941406,6.40429688 18.1347656,6.46679688 C18.2207031,6.50195312 18.3398438,6.52539062 18.4921875,6.53710938 C18.6445312,6.54882812 18.8945312,6.5546875 19.2421875,6.5546875 L20.0214844,6.56054688 C20.5214844,6.56054688 20.8701172,6.57226562 21.0673828,6.59570312 C21.2646484,6.61914062 21.4199219,6.66992188 21.5332031,6.74804688 C21.8183594,6.93164062 21.9609375,7.1953125 21.9609375,7.5390625 C21.9609375,7.6953125 21.9160156,7.890625 21.8261719,8.125 Z M20.34375,4.60351562 C20.6875,4.44726562 20.9472656,4.24121094 21.1230469,3.98535156 C21.2988281,3.72949219 21.3867188,3.4296875 21.3867188,3.0859375 C21.3867188,2.71875 21.2919922,2.39355469 21.1025391,2.11035156 C20.9130859,1.82714844 20.6621094,1.625 20.3496094,1.50390625 C20.5449219,1.6796875 20.6835938,1.88476562 20.765625,2.11914062 C20.8476562,2.35351562 20.8886719,2.64453125 20.8886719,2.9921875 C20.8886719,3.3671875 20.8466797,3.67773438 20.7626953,3.92382812 C20.6787109,4.16992188 20.5390625,4.39648438 20.34375,4.60351562 Z M18.7617188,4.56835938 C18.34375,4.19335938 18.1347656,3.69726562 18.1347656,3.08007812 C18.1347656,2.41601562 18.4082031,1.87890625 18.9550781,1.46875 C18.5527344,1.5859375 18.234375,1.7890625 18,2.078125 C17.765625,2.3671875 17.6484375,2.69921875 17.6484375,3.07421875 C17.6484375,3.390625 17.7441406,3.67675781 17.9355469,3.93261719 C18.1269531,4.18847656 18.4023438,4.40039062 18.7617188,4.56835938 Z M20.3789062,0.37890625 C20.5117188,0.42578125 20.6132812,0.48046875 20.6835938,0.54296875 C20.7539062,0.60546875 20.8203125,0.697265625 20.8828125,0.818359375 C20.9492188,0.923828125 21.0009766,0.995117188 21.0380859,1.03222656 C21.0751953,1.06933594 21.1210938,1.08789062 21.1757812,1.08789062 C21.2851562,1.08789062 21.3398438,1.03125 21.3398438,0.91796875 C21.3398438,0.828125 21.3017578,0.740234375 21.2255859,0.654296875 C21.1494141,0.568359375 21.0507812,0.498046875 20.9296875,0.443359375 C20.8085938,0.388671875 20.6835938,0.361328125 20.5546875,0.361328125 C20.515625,0.361328125 20.4570312,0.3671875 20.3789062,0.37890625 Z" id="Shape"></path>
            <path d="M22.7285156,8.15039062 L22.7285156,7.9921875 C22.9941406,7.9453125 23.1757812,7.85449219 23.2734375,7.71972656 C23.3710938,7.58496094 23.4199219,7.35351562 23.4199219,7.02539062 L23.4199219,4.56445312 C23.4199219,4.23632812 23.3701172,4.00292969 23.2705078,3.86425781 C23.1708984,3.72558594 22.9902344,3.63671875 22.7285156,3.59765625 L22.7285156,3.46875 L24.6152344,3.25195312 L24.6152344,7.02539062 C24.6152344,7.34960938 24.6630859,7.58007812 24.7587891,7.71679688 C24.8544922,7.85351562 25.0351562,7.9453125 25.3007812,7.9921875 L25.3007812,8.15039062 L22.7285156,8.15039062 Z M23.2617188,1.65234375 C23.2617188,1.45703125 23.328125,1.29101562 23.4609375,1.15429688 C23.59375,1.01757812 23.7597656,0.94921875 23.9589844,0.94921875 C24.1582031,0.94921875 24.3242188,1.01757812 24.4570312,1.15429688 C24.5898438,1.29101562 24.65625,1.45703125 24.65625,1.65234375 C24.65625,1.8515625 24.5898438,2.01757812 24.4570312,2.15039062 C24.3242188,2.28320312 24.1582031,2.34960938 23.9589844,2.34960938 C23.7597656,2.34960938 23.59375,2.28320312 23.4609375,2.15039062 C23.328125,2.01757812 23.2617188,1.8515625 23.2617188,1.65234375 Z M23.3144531,7.89257812 L24.4863281,7.89257812 L24.3457031,7.78710938 C24.3378906,7.77929688 24.3300781,7.7734375 24.3222656,7.76953125 L24.2460938,7.7109375 C24.1914062,7.65625 24.1621094,7.58203125 24.1582031,7.48828125 L24.1582031,7.37109375 L24.1582031,7.3125 L24.1582031,3.49804688 L23.1972656,3.60351562 L23.4257812,3.76757812 C23.4296875,3.76757812 23.4375,3.7734375 23.4492188,3.78515625 L23.5253906,3.84375 C23.5644531,3.87109375 23.5898438,3.91113281 23.6015625,3.96386719 C23.6132812,4.01660156 23.6191406,4.109375 23.6191406,4.2421875 L23.6191406,7.3125 C23.6191406,7.47265625 23.6113281,7.57226562 23.5957031,7.61132812 C23.5800781,7.65039062 23.5332031,7.703125 23.4550781,7.76953125 C23.4550781,7.76953125 23.4521484,7.77148438 23.4462891,7.77539062 C23.4404297,7.77929688 23.4375,7.78320312 23.4375,7.78710938 L23.3144531,7.89257812 Z M23.9296875,1.10742188 C23.7929688,1.11523438 23.6748047,1.17285156 23.5751953,1.28027344 C23.4755859,1.38769531 23.4257812,1.51171875 23.4257812,1.65234375 C23.4257812,1.79296875 23.4765625,1.91796875 23.578125,2.02734375 C23.6796875,2.13671875 23.796875,2.19140625 23.9296875,2.19140625 C24.015625,2.19140625 24.0585938,2.14648438 24.0585938,2.05664062 C24.0625,1.98632812 24.0644531,1.84375 24.0644531,1.62890625 C24.0644531,1.421875 24.0625,1.2890625 24.0585938,1.23046875 C24.0546875,1.15234375 24.0117188,1.11132812 23.9296875,1.10742188 Z" id="Shape"></path>
            <path d="M30.1875,6.96679688 L30.3222656,7.13085938 C30.0644531,7.41992188 29.8271484,7.64746094 29.6103516,7.81347656 C29.3935547,7.97949219 29.1738281,8.09765625 28.9511719,8.16796875 C28.7285156,8.23828125 28.4726562,8.2734375 28.1835938,8.2734375 C27.7265625,8.2734375 27.3183594,8.17480469 26.9589844,7.97753906 C26.5996094,7.78027344 26.3183594,7.50097656 26.1152344,7.13964844 C25.9121094,6.77832031 25.8105469,6.375 25.8105469,5.9296875 C25.8105469,5.56640625 25.8789062,5.21679688 26.015625,4.88085938 C26.1523438,4.54492188 26.3398438,4.25390625 26.578125,4.0078125 C26.8164062,3.76171875 27.1005859,3.56933594 27.4306641,3.43066406 C27.7607422,3.29199219 28.1054688,3.22265625 28.4648438,3.22265625 C28.796875,3.22265625 29.1074219,3.28417969 29.3964844,3.40722656 C29.6855469,3.53027344 29.9150391,3.6953125 30.0849609,3.90234375 C30.2548828,4.109375 30.3398438,4.3359375 30.3398438,4.58203125 C30.3398438,4.7421875 30.2919922,4.87792969 30.1962891,4.98925781 C30.1005859,5.10058594 29.9804688,5.15625 29.8359375,5.15625 C29.625,5.15625 29.4667969,5.0546875 29.3613281,4.8515625 C29.3144531,4.76171875 29.2773438,4.58398438 29.25,4.31835938 C29.21875,4.05664062 29.1679688,3.86914062 29.0976562,3.75585938 C29.0351562,3.65039062 28.9453125,3.56738281 28.828125,3.50683594 C28.7109375,3.44628906 28.578125,3.41601562 28.4296875,3.41601562 C28.1601562,3.41601562 27.921875,3.50976562 27.7148438,3.69726562 C27.5078125,3.88476562 27.3486328,4.14648438 27.2373047,4.48242188 C27.1259766,4.81835938 27.0703125,5.20898438 27.0703125,5.65429688 C27.0703125,6.09570312 27.1347656,6.48925781 27.2636719,6.83496094 C27.3925781,7.18066406 27.5732422,7.44628906 27.8056641,7.63183594 C28.0380859,7.81738281 28.3085938,7.91015625 28.6171875,7.91015625 C28.7929688,7.91015625 28.9628906,7.87792969 29.1269531,7.81347656 C29.2910156,7.74902344 29.4619141,7.64550781 29.6396484,7.50292969 C29.8173828,7.36035156 30,7.18164062 30.1875,6.96679688 Z M28.1601562,8.11523438 C27.09375,7.83789062 26.5605469,7.04492188 26.5605469,5.73632812 C26.5605469,5.24414062 26.6318359,4.83398438 26.7744141,4.50585938 C26.9169922,4.17773438 27.1679688,3.86132812 27.5273438,3.55664062 C26.5234375,4.07226562 26.0214844,4.859375 26.0214844,5.91796875 C26.0214844,6.33203125 26.1132812,6.70605469 26.296875,7.04003906 C26.4804688,7.37402344 26.7353516,7.63574219 27.0615234,7.82519531 C27.3876953,8.01464844 27.7539062,8.11132812 28.1601562,8.11523438 Z M29.15625,3.55664062 C29.2695312,3.70507812 29.3427734,3.82910156 29.3759766,3.92871094 C29.4091797,4.02832031 29.4414062,4.19921875 29.4726562,4.44140625 C29.5039062,4.6484375 29.5380859,4.78320312 29.5751953,4.84570312 C29.6123047,4.90820312 29.671875,4.93945312 29.7539062,4.93945312 C29.8828125,4.93945312 29.9472656,4.84570312 29.9472656,4.65820312 C29.9472656,4.27148438 29.6835938,3.90429688 29.15625,3.55664062 Z" id="Shape"></path>
            <path d="M36.0234375,5.19140625 L33.0058594,5.19140625 L32.6777344,5.94140625 C32.5214844,6.30859375 32.4433594,6.61132812 32.4433594,6.84960938 C32.4433594,7.05273438 32.4892578,7.22753906 32.5810547,7.37402344 C32.6728516,7.52050781 32.8095703,7.64160156 32.9912109,7.73730469 C33.1728516,7.83300781 33.4121094,7.91015625 33.7089844,7.96875 L33.7089844,8.15039062 L30.6679688,8.15039062 L30.6679688,7.97460938 C31.0351562,7.84960938 31.3505859,7.63085938 31.6142578,7.31835938 C31.8779297,7.00585938 32.15625,6.51953125 32.4492188,5.859375 L35.0390625,0 L35.1914062,0 L38.0097656,6.33398438 C38.0175781,6.33789062 38.0244141,6.34863281 38.0302734,6.36621094 C38.0361328,6.38378906 38.0439453,6.40234375 38.0537109,6.421875 C38.0634766,6.44140625 38.0742188,6.46289062 38.0859375,6.48632812 L38.34375,7.01953125 C38.484375,7.3046875 38.6445312,7.51953125 38.8242188,7.6640625 C39.0039062,7.80859375 39.2285156,7.91015625 39.4980469,7.96875 L39.4980469,8.15039062 L35.7597656,8.15039062 L35.7597656,7.96875 C36.0761719,7.9453125 36.3027344,7.90820312 36.4394531,7.85742188 C36.7207031,7.75195312 36.8613281,7.56835938 36.8613281,7.30664062 C36.8613281,7.17773438 36.7988281,6.96679688 36.6738281,6.67382812 L36.0234375,5.19140625 Z M35.9121094,4.9453125 L34.5,1.76367188 L33.1113281,4.9453125 L35.9121094,4.9453125 Z M34.6230469,1.51171875 L36.8789062,6.59179688 L36.9375,6.72070312 C37.0585938,6.98242188 37.1191406,7.17382812 37.1191406,7.29492188 C37.1191406,7.46289062 37.0234375,7.6484375 36.8320312,7.8515625 L38.3789062,7.8515625 C38.203125,7.6875 38.0507812,7.49902344 37.921875,7.28613281 C37.7929688,7.07324219 37.6425781,6.77734375 37.4707031,6.3984375 L34.9570312,0.744140625 L34.6230469,1.51171875 Z M32.5722656,7.8515625 C32.4394531,7.69140625 32.3457031,7.54785156 32.2910156,7.42089844 C32.2363281,7.29394531 32.2089844,7.15625 32.2089844,7.0078125 C32.2089844,6.94140625 32.2109375,6.88867188 32.2148438,6.84960938 C32.09375,7.08398438 31.9746094,7.27246094 31.8574219,7.41503906 C31.7402344,7.55761719 31.5820312,7.703125 31.3828125,7.8515625 L32.5722656,7.8515625 Z" id="Shape"></path>
            <path d="M41.7539062,1.94335938 C42.0390625,1.70117188 42.3154297,1.5234375 42.5830078,1.41015625 C42.8505859,1.296875 43.1367188,1.24023438 43.4414062,1.24023438 C43.7734375,1.24023438 44.0771484,1.29785156 44.3525391,1.41308594 C44.6279297,1.52832031 44.8701172,1.69042969 45.0791016,1.89941406 C45.2880859,2.10839844 45.4501953,2.35058594 45.5654297,2.62597656 C45.6806641,2.90136719 45.7382812,3.20703125 45.7382812,3.54296875 C45.7382812,3.91015625 45.671875,4.25683594 45.5390625,4.58300781 C45.40625,4.90917969 45.21875,5.20117188 44.9765625,5.45898438 C44.734375,5.71679688 44.4609375,5.91601562 44.15625,6.05664062 C43.8515625,6.19726562 43.5273438,6.26757812 43.1835938,6.26757812 C42.6914062,6.26757812 42.2148438,6.08984375 41.7539062,5.734375 L41.7539062,7.984375 C41.7539062,8.19921875 41.7783203,8.37207031 41.8271484,8.50292969 C41.8759766,8.63378906 41.9589844,8.73339844 42.0761719,8.80175781 C42.1933594,8.87011719 42.3554688,8.91992188 42.5625,8.95117188 L42.5625,9.109375 L39.8671875,9.109375 L39.8671875,8.95117188 C40.1367188,8.90429688 40.3193359,8.8125 40.4150391,8.67578125 C40.5107422,8.5390625 40.5585938,8.30859375 40.5585938,7.984375 L40.5585938,2.56445312 C40.5585938,2.24023438 40.5097656,2.00878906 40.4121094,1.87011719 C40.3144531,1.73144531 40.1328125,1.640625 39.8671875,1.59765625 L39.8671875,1.46875 L41.7539062,1.25195312 L41.7539062,1.94335938 Z M41.7539062,5.30664062 L41.7890625,5.3359375 C42.0390625,5.55859375 42.2675781,5.72363281 42.4746094,5.83105469 C42.6816406,5.93847656 42.8847656,5.9921875 43.0839844,5.9921875 C43.3652344,5.9921875 43.6113281,5.90429688 43.8222656,5.72851562 C44.0332031,5.55273438 44.1962891,5.29882812 44.3115234,4.96679688 C44.4267578,4.63476562 44.484375,4.24804688 44.484375,3.80664062 C44.484375,3.47070312 44.4521484,3.16308594 44.3876953,2.88378906 C44.3232422,2.60449219 44.2294922,2.36035156 44.1064453,2.15136719 C43.9833984,1.94238281 43.8369141,1.78125 43.6669922,1.66796875 C43.4970703,1.5546875 43.3125,1.49804688 43.1132812,1.49804688 C42.9140625,1.49804688 42.6904297,1.57128906 42.4423828,1.71777344 C42.1943359,1.86425781 41.9648438,2.06054688 41.7539062,2.30664062 L41.7539062,5.30664062 Z M40.453125,8.8515625 L41.625,8.8515625 L41.484375,8.74609375 C41.4921875,8.74609375 41.484375,8.74023438 41.4609375,8.72851562 L41.390625,8.66992188 C41.3320312,8.61523438 41.3027344,8.54101562 41.3027344,8.44726562 L41.296875,8.33007812 L41.296875,8.27148438 L41.296875,1.49804688 L40.3359375,1.60351562 L40.5644531,1.76757812 C40.5683594,1.76757812 40.5761719,1.7734375 40.5878906,1.78515625 L40.6640625,1.84375 C40.703125,1.87109375 40.7285156,1.90722656 40.7402344,1.95214844 C40.7519531,1.99707031 40.7578125,2.09375 40.7578125,2.2421875 L40.7578125,8.27148438 C40.7578125,8.43164062 40.7509766,8.53125 40.7373047,8.5703125 C40.7236328,8.609375 40.6777344,8.66210938 40.5996094,8.72851562 C40.5878906,8.74023438 40.5800781,8.74609375 40.5761719,8.74609375 L40.453125,8.8515625 Z M43.6816406,1.43359375 C44.0527344,1.67578125 44.3212891,1.98339844 44.4873047,2.35644531 C44.6533203,2.72949219 44.7363281,3.20703125 44.7363281,3.7890625 C44.7363281,4.2578125 44.6796875,4.65234375 44.5664062,4.97265625 C44.453125,5.29296875 44.265625,5.58398438 44.0039062,5.84570312 C44.265625,5.72460938 44.4931641,5.55273438 44.6865234,5.33007812 C44.8798828,5.10742188 45.0283203,4.85351562 45.1318359,4.56835938 C45.2353516,4.28320312 45.2871094,3.97070312 45.2871094,3.63085938 C45.2871094,3.05664062 45.1396484,2.56738281 44.8447266,2.16308594 C44.5498047,1.75878906 44.1621094,1.515625 43.6816406,1.43359375 Z" id="Shape"></path>
            <path d="M48.1582031,1.94335938 C48.4433594,1.70117188 48.7197266,1.5234375 48.9873047,1.41015625 C49.2548828,1.296875 49.5410156,1.24023438 49.8457031,1.24023438 C50.1777344,1.24023438 50.4814453,1.29785156 50.7568359,1.41308594 C51.0322266,1.52832031 51.2744141,1.69042969 51.4833984,1.89941406 C51.6923828,2.10839844 51.8544922,2.35058594 51.9697266,2.62597656 C52.0849609,2.90136719 52.1425781,3.20703125 52.1425781,3.54296875 C52.1425781,3.91015625 52.0761719,4.25683594 51.9433594,4.58300781 C51.8105469,4.90917969 51.6230469,5.20117188 51.3808594,5.45898438 C51.1386719,5.71679688 50.8652344,5.91601562 50.5605469,6.05664062 C50.2558594,6.19726562 49.9316406,6.26757812 49.5878906,6.26757812 C49.0957031,6.26757812 48.6191406,6.08984375 48.1582031,5.734375 L48.1582031,7.984375 C48.1582031,8.19921875 48.1826172,8.37207031 48.2314453,8.50292969 C48.2802734,8.63378906 48.3632812,8.73339844 48.4804688,8.80175781 C48.5976562,8.87011719 48.7597656,8.91992188 48.9667969,8.95117188 L48.9667969,9.109375 L46.2714844,9.109375 L46.2714844,8.95117188 C46.5410156,8.90429688 46.7236328,8.8125 46.8193359,8.67578125 C46.9150391,8.5390625 46.9628906,8.30859375 46.9628906,7.984375 L46.9628906,2.56445312 C46.9628906,2.24023438 46.9140625,2.00878906 46.8164062,1.87011719 C46.71875,1.73144531 46.5371094,1.640625 46.2714844,1.59765625 L46.2714844,1.46875 L48.1582031,1.25195312 L48.1582031,1.94335938 Z M48.1582031,5.30664062 L48.1933594,5.3359375 C48.4433594,5.55859375 48.671875,5.72363281 48.8789062,5.83105469 C49.0859375,5.93847656 49.2890625,5.9921875 49.4882812,5.9921875 C49.7695312,5.9921875 50.015625,5.90429688 50.2265625,5.72851562 C50.4375,5.55273438 50.6005859,5.29882812 50.7158203,4.96679688 C50.8310547,4.63476562 50.8886719,4.24804688 50.8886719,3.80664062 C50.8886719,3.47070312 50.8564453,3.16308594 50.7919922,2.88378906 C50.7275391,2.60449219 50.6337891,2.36035156 50.5107422,2.15136719 C50.3876953,1.94238281 50.2412109,1.78125 50.0712891,1.66796875 C49.9013672,1.5546875 49.7167969,1.49804688 49.5175781,1.49804688 C49.3183594,1.49804688 49.0947266,1.57128906 48.8466797,1.71777344 C48.5986328,1.86425781 48.3691406,2.06054688 48.1582031,2.30664062 L48.1582031,5.30664062 Z M46.8574219,8.8515625 L48.0292969,8.8515625 L47.8886719,8.74609375 C47.8964844,8.74609375 47.8886719,8.74023438 47.8652344,8.72851562 L47.7949219,8.66992188 C47.7363281,8.61523438 47.7070312,8.54101562 47.7070312,8.44726562 L47.7011719,8.33007812 L47.7011719,8.27148438 L47.7011719,1.49804688 L46.7402344,1.60351562 L46.96875,1.76757812 C46.9726562,1.76757812 46.9804688,1.7734375 46.9921875,1.78515625 L47.0683594,1.84375 C47.1074219,1.87109375 47.1328125,1.90722656 47.1445312,1.95214844 C47.15625,1.99707031 47.1621094,2.09375 47.1621094,2.2421875 L47.1621094,8.27148438 C47.1621094,8.43164062 47.1552734,8.53125 47.1416016,8.5703125 C47.1279297,8.609375 47.0820312,8.66210938 47.0039062,8.72851562 C46.9921875,8.74023438 46.984375,8.74609375 46.9804688,8.74609375 L46.8574219,8.8515625 Z M50.0859375,1.43359375 C50.4570312,1.67578125 50.7255859,1.98339844 50.8916016,2.35644531 C51.0576172,2.72949219 51.140625,3.20703125 51.140625,3.7890625 C51.140625,4.2578125 51.0839844,4.65234375 50.9707031,4.97265625 C50.8574219,5.29296875 50.6699219,5.58398438 50.4082031,5.84570312 C50.6699219,5.72460938 50.8974609,5.55273438 51.0908203,5.33007812 C51.2841797,5.10742188 51.4326172,4.85351562 51.5361328,4.56835938 C51.6396484,4.28320312 51.6914062,3.97070312 51.6914062,3.63085938 C51.6914062,3.05664062 51.5439453,2.56738281 51.2490234,2.16308594 C50.9541016,1.75878906 50.5664062,1.515625 50.0859375,1.43359375 Z" id="Shape"></path>
        </g>
    </g>
</svg>