<?xml version="1.0" encoding="UTF-8"?>
<svg width="59.16px" height="11.58px" viewBox="0 0 59.16 11.58" version="1.1" xmlns="http://www.w3.org/2000/svg" xmlns:xlink="http://www.w3.org/1999/xlink">
    <title>MagicApp</title>
    <g id="Page-1" stroke="none" stroke-width="1" fill="none" fill-rule="evenodd">
        <g id="MagicApp" transform="translate(0, 0)" fill="#FF4D83" fill-rule="nonzero">
            <polygon id="Path" points="0 8.94 0 -5.68434189e-14 1.56 -5.68434189e-14 4.908 4.548 4.164 4.548 7.44 -5.68434189e-14 9 -5.68434189e-14 9 8.94 7.356 8.94 7.356 1.86 7.992 2.016 4.596 6.54 4.404 6.54 1.092 2.016 1.632 1.86 1.632 8.94"></polygon>
            <path d="M12.564,9.084 C12.108,9.084 11.712,9.008 11.376,8.856 C11.04,8.704 10.78,8.486 10.596,8.202 C10.412,7.918 10.32,7.588 10.32,7.212 C10.32,6.852 10.4,6.53 10.56,6.246 C10.72,5.962 10.968,5.724 11.304,5.532 C11.64,5.34 12.064,5.204 12.576,5.124 L14.712,4.776 L14.712,5.976 L12.876,6.288 C12.564,6.344 12.332,6.444 12.18,6.588 C12.028,6.732 11.952,6.92 11.952,7.152 C11.952,7.376 12.038,7.554 12.21,7.686 C12.382,7.818 12.596,7.884 12.852,7.884 C13.18,7.884 13.47,7.814 13.722,7.674 C13.974,7.534 14.17,7.34 14.31,7.092 C14.45,6.844 14.52,6.572 14.52,6.276 L14.52,4.596 C14.52,4.316 14.41,4.082 14.19,3.894 C13.97,3.706 13.68,3.612 13.32,3.612 C12.984,3.612 12.686,3.702 12.426,3.882 C12.166,4.062 11.976,4.3 11.856,4.596 L10.572,3.972 C10.7,3.628 10.902,3.33 11.178,3.078 C11.454,2.826 11.78,2.628 12.156,2.484 C12.532,2.34 12.94,2.268 13.38,2.268 C13.916,2.268 14.388,2.366 14.796,2.562 C15.204,2.758 15.522,3.03 15.75,3.378 C15.978,3.726 16.092,4.132 16.092,4.596 L16.092,8.94 L14.604,8.94 L14.604,7.824 L14.94,7.8 C14.772,8.08 14.572,8.314 14.34,8.502 C14.108,8.69 13.844,8.834 13.548,8.934 C13.252,9.034 12.924,9.084 12.564,9.084 Z" id="Path"></path>
            <path d="M20.712,11.58 C20.224,11.58 19.772,11.5 19.356,11.34 C18.94,11.18 18.582,10.958 18.282,10.674 C17.982,10.39 17.764,10.056 17.628,9.672 L19.092,9.12 C19.188,9.424 19.378,9.67 19.662,9.858 C19.946,10.046 20.296,10.14 20.712,10.14 C21.032,10.14 21.314,10.08 21.558,9.96 C21.802,9.84 21.992,9.666 22.128,9.438 C22.264,9.21 22.332,8.936 22.332,8.616 L22.332,7.128 L22.632,7.488 C22.408,7.88 22.108,8.176 21.732,8.376 C21.356,8.576 20.928,8.676 20.448,8.676 C19.84,8.676 19.296,8.536 18.816,8.256 C18.336,7.976 17.96,7.592 17.688,7.104 C17.416,6.616 17.28,6.068 17.28,5.46 C17.28,4.844 17.416,4.296 17.688,3.816 C17.96,3.336 18.332,2.958 18.804,2.682 C19.276,2.406 19.812,2.268 20.412,2.268 C20.9,2.268 21.33,2.37 21.702,2.574 C22.074,2.778 22.384,3.072 22.632,3.456 L22.416,3.852 L22.416,2.412 L23.904,2.412 L23.904,8.616 C23.904,9.184 23.766,9.692 23.49,10.14 C23.214,10.588 22.838,10.94 22.362,11.196 C21.886,11.452 21.336,11.58 20.712,11.58 Z M20.64,7.224 C20.976,7.224 21.27,7.15 21.522,7.002 C21.774,6.854 21.972,6.648 22.116,6.384 C22.26,6.12 22.332,5.816 22.332,5.472 C22.332,5.136 22.258,4.834 22.11,4.566 C21.962,4.298 21.762,4.088 21.51,3.936 C21.258,3.784 20.968,3.708 20.64,3.708 C20.312,3.708 20.016,3.784 19.752,3.936 C19.488,4.088 19.282,4.298 19.134,4.566 C18.986,4.834 18.912,5.136 18.912,5.472 C18.912,5.808 18.986,6.108 19.134,6.372 C19.282,6.636 19.486,6.844 19.746,6.996 C20.006,7.148 20.304,7.224 20.64,7.224 Z" id="Shape"></path>
            <path d="M25.368,8.94 L25.368,2.412 L26.94,2.412 L26.94,8.94 L25.368,8.94 Z M25.368,1.68 L25.368,-5.68434189e-14 L26.94,-5.68434189e-14 L26.94,1.68 L25.368,1.68 Z" id="Shape"></path>
            <path d="M31.536,9.084 C30.888,9.084 30.306,8.934 29.79,8.634 C29.274,8.334 28.868,7.926 28.572,7.41 C28.276,6.894 28.128,6.312 28.128,5.664 C28.128,5.016 28.276,4.436 28.572,3.924 C28.868,3.412 29.274,3.008 29.79,2.712 C30.306,2.416 30.888,2.268 31.536,2.268 C32,2.268 32.432,2.35 32.832,2.514 C33.232,2.678 33.578,2.902 33.87,3.186 C34.162,3.47 34.372,3.808 34.5,4.2 L33.12,4.8 C33,4.472 32.798,4.208 32.514,4.008 C32.23,3.808 31.904,3.708 31.536,3.708 C31.192,3.708 30.886,3.792 30.618,3.96 C30.35,4.128 30.14,4.36 29.988,4.656 C29.836,4.952 29.76,5.292 29.76,5.676 C29.76,6.06 29.836,6.4 29.988,6.696 C30.14,6.992 30.35,7.224 30.618,7.392 C30.886,7.56 31.192,7.644 31.536,7.644 C31.912,7.644 32.24,7.544 32.52,7.344 C32.8,7.144 33,6.876 33.12,6.54 L34.5,7.164 C34.372,7.532 34.164,7.862 33.876,8.154 C33.588,8.446 33.244,8.674 32.844,8.838 C32.444,9.002 32.008,9.084 31.536,9.084 Z" id="Path"></path>
            <path d="M35.088,8.94 L38.172,-5.68434189e-14 L40.284,-5.68434189e-14 L43.368,8.94 L41.592,8.94 L40.956,7.02 L37.5,7.02 L36.852,8.94 L35.088,8.94 Z M37.968,5.58 L40.488,5.58 L39,1.128 L39.456,1.128 L37.968,5.58 Z" id="Shape"></path>
            <path d="M44.232,11.34 L44.232,2.412 L45.708,2.412 L45.708,3.708 L45.564,3.384 C45.788,3.032 46.092,2.758 46.476,2.562 C46.86,2.366 47.304,2.268 47.808,2.268 C48.424,2.268 48.98,2.42 49.476,2.724 C49.972,3.028 50.366,3.436 50.658,3.948 C50.95,4.46 51.096,5.036 51.096,5.676 C51.096,6.308 50.952,6.884 50.664,7.404 C50.376,7.924 49.984,8.334 49.488,8.634 C48.992,8.934 48.428,9.084 47.796,9.084 C47.324,9.084 46.89,8.99 46.494,8.802 C46.098,8.614 45.784,8.344 45.552,7.992 L45.804,7.68 L45.804,11.34 L44.232,11.34 Z M47.616,7.644 C47.976,7.644 48.296,7.56 48.576,7.392 C48.856,7.224 49.074,6.992 49.23,6.696 C49.386,6.4 49.464,6.06 49.464,5.676 C49.464,5.292 49.386,4.954 49.23,4.662 C49.074,4.37 48.856,4.138 48.576,3.966 C48.296,3.794 47.976,3.708 47.616,3.708 C47.272,3.708 46.962,3.792 46.686,3.96 C46.41,4.128 46.194,4.362 46.038,4.662 C45.882,4.962 45.804,5.3 45.804,5.676 C45.804,6.06 45.882,6.4 46.038,6.696 C46.194,6.992 46.41,7.224 46.686,7.392 C46.962,7.56 47.272,7.644 47.616,7.644 Z" id="Shape"></path>
            <path d="M52.296,11.34 L52.296,2.412 L53.772,2.412 L53.772,3.708 L53.628,3.384 C53.852,3.032 54.156,2.758 54.54,2.562 C54.924,2.366 55.368,2.268 55.872,2.268 C56.488,2.268 57.044,2.42 57.54,2.724 C58.036,3.028 58.43,3.436 58.722,3.948 C59.014,4.46 59.16,5.036 59.16,5.676 C59.16,6.308 59.016,6.884 58.728,7.404 C58.44,7.924 58.048,8.334 57.552,8.634 C57.056,8.934 56.492,9.084 55.86,9.084 C55.388,9.084 54.954,8.99 54.558,8.802 C54.162,8.614 53.848,8.344 53.616,7.992 L53.868,7.68 L53.868,11.34 L52.296,11.34 Z M55.68,7.644 C56.04,7.644 56.36,7.56 56.64,7.392 C56.92,7.224 57.138,6.992 57.294,6.696 C57.45,6.4 57.528,6.06 57.528,5.676 C57.528,5.292 57.45,4.954 57.294,4.662 C57.138,4.37 56.92,4.138 56.64,3.966 C56.36,3.794 56.04,3.708 55.68,3.708 C55.336,3.708 55.026,3.792 54.75,3.96 C54.474,4.128 54.258,4.362 54.102,4.662 C53.946,4.962 53.868,5.3 53.868,5.676 C53.868,6.06 53.946,6.4 54.102,6.696 C54.258,6.992 54.474,7.224 54.75,7.392 C55.026,7.56 55.336,7.644 55.68,7.644 Z" id="Shape"></path>
        </g>
    </g>
</svg>
