<?xml version="1.0" encoding="UTF-8"?>
<svg width="62.172px" height="12.912px" viewBox="0 0 62.172 12.912" version="1.1" xmlns="http://www.w3.org/2000/svg" xmlns:xlink="http://www.w3.org/1999/xlink">
    <title>MagicApp</title>
    <g id="Page-1" stroke="none" stroke-width="1" fill="none" fill-rule="evenodd">
        <g id="MagicApp" transform="translate(-0, 0)" fill-rule="nonzero">
            <polygon id="Path" fill="#F14770" points="9.54 1.188 9.54 9.612 7.488 9.612 7.488 4.56 5.604 9.612 3.948 9.612 2.052 4.548 2.052 9.612 1.13686838e-13 9.612 1.13686838e-13 1.188 2.424 1.188 4.788 7.02 7.128 1.188"></polygon>
            <path d="M10.608,6.252 C10.608,5.564 10.738,4.96 10.998,4.44 C11.258,3.92 11.612,3.52 12.06,3.24 C12.508,2.96 13.008,2.82 13.56,2.82 C14.032,2.82 14.446,2.916 14.802,3.108 C15.158,3.3 15.432,3.552 15.624,3.864 L15.624,2.916 L17.676,2.916 L17.676,9.612 L15.624,9.612 L15.624,8.664 C15.424,8.976 15.146,9.228 14.79,9.42 C14.434,9.612 14.02,9.708 13.548,9.708 C13.004,9.708 12.508,9.566 12.06,9.282 C11.612,8.998 11.258,8.594 10.998,8.07 C10.738,7.546 10.608,6.94 10.608,6.252 Z M15.624,6.264 C15.624,5.752 15.482,5.348 15.198,5.052 C14.914,4.756 14.568,4.608 14.16,4.608 C13.752,4.608 13.406,4.754 13.122,5.046 C12.838,5.338 12.696,5.74 12.696,6.252 C12.696,6.764 12.838,7.17 13.122,7.47 C13.406,7.77 13.752,7.92 14.16,7.92 C14.568,7.92 14.914,7.772 15.198,7.476 C15.482,7.18 15.624,6.776 15.624,6.264 Z" id="Shape" fill="#F2733F"></path>
            <path d="M21.708,2.82 C22.18,2.82 22.594,2.916 22.95,3.108 C23.306,3.3 23.58,3.552 23.772,3.864 L23.772,2.916 L25.824,2.916 L25.824,9.6 C25.824,10.216 25.702,10.774 25.458,11.274 C25.214,11.774 24.842,12.172 24.342,12.468 C23.842,12.764 23.22,12.912 22.476,12.912 C21.484,12.912 20.68,12.678 20.064,12.21 C19.448,11.742 19.096,11.108 19.008,10.308 L21.036,10.308 C21.1,10.564 21.252,10.766 21.492,10.914 C21.732,11.062 22.028,11.136 22.38,11.136 C22.804,11.136 23.142,11.014 23.394,10.77 C23.646,10.526 23.772,10.136 23.772,9.6 L23.772,8.652 C23.572,8.964 23.296,9.218 22.944,9.414 C22.592,9.61 22.18,9.708 21.708,9.708 C21.156,9.708 20.656,9.566 20.208,9.282 C19.76,8.998 19.406,8.594 19.146,8.07 C18.886,7.546 18.756,6.94 18.756,6.252 C18.756,5.564 18.886,4.96 19.146,4.44 C19.406,3.92 19.76,3.52 20.208,3.24 C20.656,2.96 21.156,2.82 21.708,2.82 Z M23.772,6.264 C23.772,5.752 23.63,5.348 23.346,5.052 C23.062,4.756 22.716,4.608 22.308,4.608 C21.9,4.608 21.554,4.754 21.27,5.046 C20.986,5.338 20.844,5.74 20.844,6.252 C20.844,6.764 20.986,7.17 21.27,7.47 C21.554,7.77 21.9,7.92 22.308,7.92 C22.716,7.92 23.062,7.772 23.346,7.476 C23.63,7.18 23.772,6.776 23.772,6.264 Z" id="Shape" fill="#5A7AD3"></path>
            <path d="M28.344,2.22 C27.984,2.22 27.69,2.114 27.462,1.902 C27.234,1.69 27.12,1.428 27.12,1.116 C27.12,0.796 27.234,0.53 27.462,0.318 C27.69,0.106 27.984,0 28.344,0 C28.696,0 28.986,0.106 29.214,0.318 C29.442,0.53 29.556,0.796 29.556,1.116 C29.556,1.428 29.442,1.69 29.214,1.902 C28.986,2.114 28.696,2.22 28.344,2.22 Z M29.364,2.916 L29.364,9.612 L27.312,9.612 L27.312,2.916 L29.364,2.916 Z" id="Shape" fill="#52A75C"></path>
            <path d="M30.444,6.264 C30.444,5.568 30.586,4.96 30.87,4.44 C31.154,3.92 31.55,3.52 32.058,3.24 C32.566,2.96 33.148,2.82 33.804,2.82 C34.644,2.82 35.346,3.04 35.91,3.48 C36.474,3.92 36.844,4.54 37.02,5.34 L34.836,5.34 C34.652,4.828 34.296,4.572 33.768,4.572 C33.392,4.572 33.092,4.718 32.868,5.01 C32.644,5.302 32.532,5.72 32.532,6.264 C32.532,6.808 32.644,7.226 32.868,7.518 C33.092,7.81 33.392,7.956 33.768,7.956 C34.296,7.956 34.652,7.7 34.836,7.188 L37.02,7.188 C36.844,7.972 36.472,8.588 35.904,9.036 C35.336,9.484 34.636,9.708 33.804,9.708 C33.148,9.708 32.566,9.568 32.058,9.288 C31.55,9.008 31.154,8.608 30.87,8.088 C30.586,7.568 30.444,6.96 30.444,6.264 Z" id="Path" fill="#444444"></path>
            <path d="M43.356,8.124 L40.212,8.124 L39.708,9.612 L37.56,9.612 L40.608,1.188 L42.984,1.188 L46.032,9.612 L43.86,9.612 L43.356,8.124 Z M42.828,6.54 L41.784,3.456 L40.752,6.54 L42.828,6.54 Z" id="Shape" fill="#D14A4A"></path>
            <path d="M49.008,3.864 C49.208,3.552 49.484,3.3 49.836,3.108 C50.188,2.916 50.6,2.82 51.072,2.82 C51.624,2.82 52.124,2.96 52.572,3.24 C53.02,3.52 53.374,3.92 53.634,4.44 C53.894,4.96 54.024,5.564 54.024,6.252 C54.024,6.94 53.894,7.546 53.634,8.07 C53.374,8.594 53.02,8.998 52.572,9.282 C52.124,9.566 51.624,9.708 51.072,9.708 C50.608,9.708 50.198,9.612 49.842,9.42 C49.486,9.228 49.208,8.98 49.008,8.676 L49.008,12.804 L46.956,12.804 L46.956,2.916 L49.008,2.916 L49.008,3.864 Z M51.936,6.252 C51.936,5.74 51.794,5.338 51.51,5.046 C51.226,4.754 50.876,4.608 50.46,4.608 C50.052,4.608 49.706,4.756 49.422,5.052 C49.138,5.348 48.996,5.752 48.996,6.264 C48.996,6.776 49.138,7.18 49.422,7.476 C49.706,7.772 50.052,7.92 50.46,7.92 C50.868,7.92 51.216,7.77 51.504,7.47 C51.792,7.17 51.936,6.764 51.936,6.252 Z" id="Shape" fill="#D14A4A"></path>
            <path d="M57.156,3.864 C57.356,3.552 57.632,3.3 57.984,3.108 C58.336,2.916 58.748,2.82 59.22,2.82 C59.772,2.82 60.272,2.96 60.72,3.24 C61.168,3.52 61.522,3.92 61.782,4.44 C62.042,4.96 62.172,5.564 62.172,6.252 C62.172,6.94 62.042,7.546 61.782,8.07 C61.522,8.594 61.168,8.998 60.72,9.282 C60.272,9.566 59.772,9.708 59.22,9.708 C58.756,9.708 58.346,9.612 57.99,9.42 C57.634,9.228 57.356,8.98 57.156,8.676 L57.156,12.804 L55.104,12.804 L55.104,2.916 L57.156,2.916 L57.156,3.864 Z M60.084,6.252 C60.084,5.74 59.942,5.338 59.658,5.046 C59.374,4.754 59.024,4.608 58.608,4.608 C58.2,4.608 57.854,4.756 57.57,5.052 C57.286,5.348 57.144,5.752 57.144,6.264 C57.144,6.776 57.286,7.18 57.57,7.476 C57.854,7.772 58.2,7.92 58.608,7.92 C59.016,7.92 59.364,7.77 59.652,7.47 C59.94,7.17 60.084,6.764 60.084,6.252 Z" id="Shape" fill="#D14A4A"></path>
        </g>
    </g>
</svg>