<svg width="490px" height="489px" viewBox="0 0 490 489" version="1.1" xmlns="http://www.w3.org/2000/svg" xmlns:xlink="http://www.w3.org/1999/xlink">
    <g id="Page-1" stroke="none" stroke-width="1" fill="none" fill-rule="evenodd">
        <path d="M414.079996,13.357558 C431.263065,-3.82551083 459.122324,-3.82551083 476.305393,13.357558 C493.488462,30.5406268 493.488462,58.3998859 476.305393,75.5829547 L476.305393,75.5829547 L307.306256,244.581256 L476.305393,413.579996 C493.488462,430.763065 493.488462,458.622324 476.305393,475.805393 C459.122324,492.988462 431.263065,492.988462 414.079996,475.805393 L245.081256,306.806256 L76.0829547,475.805393 C59.0717166,492.816631 31.5967444,492.986743 14.3762316,476.31573 L13.857558,475.805393 C-3.32551083,458.622324 -3.32551083,430.763065 13.857558,413.579996 L13.857558,413.579996 L182.855256,244.581256 L13.857558,75.5829547 C-3.32551083,58.3998859 -3.32551083,30.5406268 13.857558,13.357558 C31.0406268,-3.82551083 58.8998859,-3.82551083 76.0829547,13.357558 L245.081256,182.355256 Z" id="Combined-Shape" fill="#696969"></path>
    </g>
</svg>
