<?xml version="1.0" encoding="UTF-8"?>
<svg width="55px" height="55px" viewBox="0 0 478 479" version="1.1" xmlns="http://www.w3.org/2000/svg" xmlns:xlink="http://www.w3.org/1999/xlink">
    <title>Combined Shape</title>
    <g id="Page-1" stroke="none" stroke-width="1" fill="none" fill-rule="evenodd">
        <path d="M434.161472,8.27608255 C444.119841,-1.68228689 460.265548,-1.68228689 470.223917,8.27608255 C480.182287,18.234452 480.182287,34.380159 470.223917,44.3385284 L470.223917,44.3385284 L275.062305,239.499305 L470.223917,434.661472 C480.182287,444.619841 480.182287,460.765548 470.223917,470.723917 C460.265548,480.682287 444.119841,480.682287 434.161472,470.723917 L238.999305,275.562305 L43.8385284,470.723917 C33.9797426,480.582703 18.0567474,480.681291 8.07667746,471.019681 L7.77608255,470.723917 C-2.18228689,460.765548 -2.18228689,444.619841 7.77608255,434.661472 L7.77608255,434.661472 L202.937305,239.499305 L7.77608255,44.3385284 C-2.18228689,34.380159 -2.18228689,18.234452 7.77608255,8.27608255 C17.734452,-1.68228689 33.880159,-1.68228689 43.8385284,8.27608255 L238.999305,203.437305 Z" id="Combined-Shape" fill="#595959"></path>
    </g>
</svg>